<svg id="Capa_1" enable-background="new 0 0 512 512" height="512" viewBox="0 0 512 512" width="512" xmlns="http://www.w3.org/2000/svg"><g><path d="m512 236.001c0-36.219-25.808-66.522-60-73.491v-106.509c0-5.901-3.46-11.253-8.84-13.677-5.382-2.425-11.683-1.467-16.101 2.444-64.346 56.942-147.052 90.904-232.884 95.628-7.286.401-14.375.604-21.069.604h-98.106c-8.284 0-15 6.716-15 15v5h-45c-8.284 0-15 6.716-15 15v120c0 8.284 6.716 15 15 15h45v5c0 8.284 6.716 15 15 15h15v125c0 8.284 6.716 15 15 15h60c8.284 0 15-6.716 15-15v-124.922c4.604.09 9.34.261 14.176.527 85.832 4.725 168.538 38.686 232.884 95.628 2.797 2.476 6.349 3.768 9.943 3.768 2.084 0 4.183-.435 6.157-1.324 5.38-2.423 8.84-7.776 8.84-13.677v-106.509c34.192-6.968 60-37.271 60-73.49zm-422-65h83.106c2.261 0 4.561-.021 6.894-.064v130.128c-2.333-.042-4.633-.064-6.894-.064h-83.106zm-60 110v-90h30v90zm120 160h-30v-110h30zm272-56.606c-61.424-46.266-135.25-74.802-212-81.716v-133.357c76.75-6.914 150.576-35.45 212-81.716zm30-105.975v-84.84c17.459 6.192 30 22.865 30 42.42s-12.541 36.228-30 42.42z"/></g></svg>