<?xml version="1.0" encoding="iso-8859-1"?>
<!-- Generator: Adobe Illustrator 21.0.0, SVG Export Plug-In . SVG Version: 6.00 Build 0)  -->
<svg xmlns="http://www.w3.org/2000/svg" xmlns:xlink="http://www.w3.org/1999/xlink" version="1.1" id="Capa_1" x="0px" y="0px" viewBox="0 0 512 512" style="enable-background:new 0 0 512 512;" xml:space="preserve" width="512" height="512">
<g>
	<path d="M497,0H87.94c-8.284,0-15,6.716-15,15v187.911H15c-8.284,0-15,6.716-15,15v242.677C0,488.936,23.089,512,51.47,512h395.529   C482.84,512,512,482.875,512,447.077V15C512,6.716,505.284,0,497,0z M30,460.587V232.911h42.94v194.798v32.879   c0,11.807-9.631,21.413-21.47,21.413C39.631,482,30,472.395,30,460.587z M482,447.077C482,466.333,466.298,482,446.999,482H98.245   c3.005-6.524,4.695-13.773,4.695-21.413v-32.879V217.911V30H482V447.077z"/>
	<path d="M147.942,270.876h289.071c8.284,0,15-6.716,15-15c0-8.284-6.716-15-15-15H147.942c-8.284,0-15,6.716-15,15   C132.942,264.16,139.658,270.876,147.942,270.876z"/>
	<path d="M147.942,210.968h289.071c8.284,0,15-6.716,15-15c0-8.284-6.716-15-15-15H147.942c-8.284,0-15,6.716-15,15   C132.942,204.252,139.658,210.968,147.942,210.968z"/>
	<path d="M147.942,330.783h97.619c8.284,0,15-6.716,15-15s-6.716-15-15-15h-97.619c-8.284,0-15,6.716-15,15   S139.658,330.783,147.942,330.783z"/>
	<path d="M147.942,390.69h97.619c8.284,0,15-6.716,15-15c0-8.284-6.716-15-15-15h-97.619c-8.284,0-15,6.716-15,15   C132.942,383.975,139.658,390.69,147.942,390.69z"/>
	<path d="M147.942,450.598h97.619c8.284,0,15-6.716,15-15c0-8.284-6.716-15-15-15h-97.619c-8.284,0-15,6.716-15,15   C132.942,443.882,139.658,450.598,147.942,450.598z"/>
	<path d="M144.448,147.653c4.681,0,9.361-1.917,9.361-5.751v-40.736l22.802,41.455c2.28,4.193,6.12,5.032,10.441,5.032   c4.681,0,9.361-1.917,9.361-5.751v-76.2c0-3.954-4.68-5.631-9.361-5.631c-4.68,0-9.36,1.677-9.36,5.631v40.736l-19.442-37.022   c-4.56-8.746-7.081-9.345-13.801-9.345c-4.68,0-9.361,1.797-9.361,5.751v76.081C135.087,145.736,139.768,147.653,144.448,147.653z"/>
	<path d="M222.33,147.653h42.724c3.96,0,5.641-4.193,5.641-8.027c0-4.433-2.04-8.267-5.641-8.267h-32.163V110.99h18.001   c3.96,0,5.641-3.834,5.641-7.069c0-3.834-2.04-7.309-5.641-7.309h-18.001V76.365h32.163c3.601,0,5.641-3.834,5.641-8.267   c0-3.834-1.68-8.027-5.641-8.027H222.33c-4.08,0-8.161,1.917-8.161,5.751v76.081C214.169,145.736,218.249,147.653,222.33,147.653z"/>
	<path d="M301.651,142.142c1.32,4.193,6.841,6.23,12.361,6.23c5.4,0,11.161-2.037,12.121-6.23l6.24-28.396l6.241,28.396   c0.96,4.193,6.721,6.23,12.121,6.23c5.521,0,10.921-2.037,12.361-6.23l23.882-73.085c0.12-0.359,0.24-0.958,0.24-1.558   c0-4.074-6.72-7.428-12.121-7.428c-2.88,0-5.281,0.958-6.001,3.475l-18.241,61.463l-9.481-40.497   c-0.72-3.235-4.92-4.912-9.001-4.912c-4.08,0-8.281,1.677-9,4.912l-9.481,40.497L295.65,63.545c-0.72-2.516-3.12-3.475-6.001-3.475   c-5.4,0-12.121,3.354-12.121,7.428c0,0.599,0.12,1.198,0.24,1.558L301.651,142.142z"/>
	<path d="M423.215,132.077c-11.161,0-14.761-8.866-20.402-8.866c-4.561,0-8.161,5.99-8.161,10.064   c0,7.908,13.201,15.576,28.922,15.576c17.401,0,30.002-9.346,30.002-26.599c0-30.192-38.043-27.916-38.043-39.897   c0-3.714,3.48-7.189,12.001-7.189c9.841,0,12.121,4.553,16.442,4.553c5.28,0,7.44-6.589,7.44-9.824   c0-9.346-17.522-10.543-23.882-10.543c-15.001,0-30.723,6.829-30.723,24.801c0,28.036,38.043,25.52,38.043,40.017   C434.856,129.92,428.736,132.077,423.215,132.077z"/>
	<path d="M437.013,300.783H305.562c-8.284,0-15,6.716-15,15v119.815c0,8.284,6.716,15,15,15h131.451c8.284,0,15-6.716,15-15V315.783   C452.013,307.499,445.297,300.783,437.013,300.783z M422.013,420.598H320.562v-89.815h101.451V420.598z"/>
</g>















</svg>
