<svg id="Capa_1" enable-background="new 0 0 512 512" height="512" viewBox="0 0 512 512" width="512" xmlns="http://www.w3.org/2000/svg"><g id="XMLID_845_"><g id="XMLID_15_"><path id="XMLID_490_" d="m381.771 338.829h30.933c54.752 0 99.297-44.544 99.297-99.297 0-54.752-44.544-99.297-99.297-99.297-7.818 0-15.532.903-23.046 2.691-17.931-67.696-79.598-115.755-150.618-115.755-24.462 0-47.884 5.511-69.614 16.379-4.939 2.471-6.941 8.478-4.471 13.417 2.471 4.939 8.477 6.942 13.417 4.471 18.927-9.467 39.339-14.267 60.668-14.267 62.408 0 116.521 42.566 131.65 102.318-10.803 5.049-20.712 12.088-29.289 20.935-3.844 3.965-3.746 10.296.22 14.141 1.942 1.883 4.452 2.82 6.959 2.82 2.611 0 5.22-1.017 7.181-3.04 8.542-8.812 18.751-15.351 29.925-19.388 8.646-3.133 17.736-4.722 27.017-4.722 43.725 0 79.297 35.572 79.297 79.297s-35.572 79.297-79.297 79.297h-34.656c-6.795-15.365-22.175-26.119-40.028-26.119-1.507 0-2.996.077-4.464.226-9.902-10.479-23.545-16.419-38.13-16.419h-2.71c4.444-6.846 7.037-14.999 7.037-23.751v-12.303c0-24.125-19.627-43.751-43.752-43.751s-43.752 19.627-43.752 43.751v12.303c0 8.752 2.593 16.906 7.037 23.751h-2.71c-14.554 0-28.224 5.947-38.129 16.42-1.468-.15-2.958-.226-4.465-.226-17.853 0-33.232 10.754-40.028 26.119h-34.656c-43.725-.001-79.297-35.573-79.297-79.298 0-43.31 33.895-78.128 77.165-79.268 4.562-.12 8.464-3.313 9.484-7.761 2.655-11.576 6.837-22.77 12.431-33.27 2.597-4.874.75-10.931-4.124-13.527-4.874-2.597-10.931-.75-13.527 4.124-5.244 9.844-9.408 20.219-12.419 30.932-23.068 2.368-44.426 12.658-60.795 29.438-18.195 18.65-28.215 43.273-28.215 69.332 0 54.753 44.544 99.297 99.297 99.297h30.933v9.936c0 8.752 2.593 16.906 7.037 23.752h-2.711c-28.969 0-52.537 23.568-52.537 52.537v49.775c0 5.522 4.477 10 10 10h327.962c5.523 0 10-4.478 10-10v-49.775c0-28.969-23.568-52.537-52.537-52.537h-2.711c4.444-6.846 7.037-15 7.037-23.752v-9.936zm-149.523-86.064v-12.303c0-13.097 10.655-23.751 23.752-23.751s23.752 10.655 23.752 23.751v12.303c0 13.096-10.655 23.751-23.752 23.751s-23.752-10.655-23.752-23.751zm-15.673 43.752h78.85c6.021 0 11.782 1.642 16.776 4.653-10.863 7.969-17.933 20.818-17.933 35.292v12.303c0 8.752 2.593 16.906 7.037 23.752h-2.711c-17.514 0-33.043 8.623-42.594 21.836-9.551-13.214-25.08-21.836-42.594-21.836h-2.711c4.444-6.846 7.037-15 7.037-23.752v-12.303c0-14.474-7.069-27.322-17.931-35.291 4.999-3.012 10.764-4.654 16.774-4.654zm-66.346 52.248v-12.303c0-13.097 10.655-23.752 23.751-23.752s23.752 10.655 23.752 23.752v12.303c0 13.097-10.655 23.752-23.752 23.752s-23.751-10.656-23.751-23.752zm95.714 116.064h-143.924v-39.775c0-17.941 14.596-32.537 32.537-32.537h78.85c17.941 0 32.537 14.596 32.537 32.537zm164.038-39.775v39.775h-143.924v-39.775c0-17.941 14.596-32.537 32.537-32.537h78.85c17.941 0 32.537 14.595 32.537 32.537zm-95.714-76.289v-12.303c0-13.097 10.655-23.752 23.752-23.752s23.751 10.655 23.751 23.752v12.303c0 13.097-10.655 23.752-23.751 23.752s-23.752-10.656-23.752-23.752z"/><path id="XMLID_496_" d="m137.24 88.59c2.63 0 5.21-1.07 7.07-2.93s2.93-4.44 2.93-7.07-1.07-5.21-2.93-7.07-4.43-2.93-7.07-2.93c-2.63 0-5.21 1.07-7.07 2.93s-2.93 4.44-2.93 7.07 1.07 5.21 2.93 7.07 4.44 2.93 7.07 2.93z"/></g></g></svg>