<svg id="Layer_1" data-name="Layer 1" xmlns="http://www.w3.org/2000/svg" xmlns:xlink="http://www.w3.org/1999/xlink" viewBox="0 0 327.58 124.74"><defs><style>.cls-1{fill:#355291;}.cls-2{fill:url(#New_Gradient_Swatch_2);}.cls-3{fill:url(#New_Gradient_Swatch_2-2);}.cls-4{fill:url(#New_Gradient_Swatch_2-3);}.cls-5{fill:url(#New_Gradient_Swatch_2-4);}.cls-6{fill:url(#New_Gradient_Swatch_2-5);}.cls-7{fill:url(#radial-gradient);}.cls-8{fill:url(#radial-gradient-2);}.cls-9{font-size:18px;fill:#231f20;font-family:AvenirNext-Medium, Avenir Next;font-weight:500;}.cls-10{letter-spacing:-0.01em;}.cls-11{letter-spacing:0em;}.cls-12{letter-spacing:-0.01em;}.cls-13{letter-spacing:-0.05em;}.cls-14{letter-spacing:-0.02em;}.cls-15{letter-spacing:0em;}</style><radialGradient id="New_Gradient_Swatch_2" cx="151.95" cy="50.1" r="23.66" gradientUnits="userSpaceOnUse"><stop offset="0" stop-color="#569dd5"/><stop offset="0.98" stop-color="#11132b"/><stop offset="1" stop-color="#101128"/></radialGradient><radialGradient id="New_Gradient_Swatch_2-2" cx="222.36" cy="50.1" r="40.11" xlink:href="#New_Gradient_Swatch_2"/><radialGradient id="New_Gradient_Swatch_2-3" cx="296.85" cy="50.57" r="24.42" xlink:href="#New_Gradient_Swatch_2"/><radialGradient id="New_Gradient_Swatch_2-4" cx="328.77" cy="50.57" r="19.78" xlink:href="#New_Gradient_Swatch_2"/><radialGradient id="New_Gradient_Swatch_2-5" cx="78.44" cy="49.82" r="52.36" xlink:href="#New_Gradient_Swatch_2"/><radialGradient id="radial-gradient" cx="75.79" cy="50.02" r="59.16" gradientUnits="userSpaceOnUse"><stop offset="0.08" stop-color="#72cfe9"/><stop offset="0.24" stop-color="#63b1d9"/><stop offset="0.53" stop-color="#4474ba"/><stop offset="0.61" stop-color="#3f69ad"/><stop offset="0.77" stop-color="#314b8a"/><stop offset="0.98" stop-color="#1a1c53"/><stop offset="1" stop-color="#17164c"/></radialGradient><radialGradient id="radial-gradient-2" cx="76.86" cy="42.26" r="62.71" gradientUnits="userSpaceOnUse"><stop offset="0" stop-color="#c6eafb"/><stop offset="0.15" stop-color="#badff5"/><stop offset="0.41" stop-color="#9bc3e5"/><stop offset="0.76" stop-color="#6895cb"/><stop offset="1" stop-color="#4272b8"/></radialGradient></defs><path class="cls-1" d="M10.05,68.45C10.05,34,34.9,6.08,69.35,6.08H67.28a62.37,62.37,0,1,0,0,124.73h2.07C34.9,130.81,10.05,102.89,10.05,68.45Z" transform="translate(-4.91 -6.08)"/><path class="cls-2" d="M133.93,78.3V41.23c0-12,8.24-19.33,17.74-19.33,11.25,0,18.3,8.39,18.3,17.82,0,9.74-6.81,17.66-15.6,17.66H144.31v-7h7.92c5.86,0,10.3-4,10.3-10.69s-4.68-10.85-10.78-10.85c-5.94,0-10.37,4.36-10.37,11.41v38Z" transform="translate(-4.91 -6.08)"/><path class="cls-3" d="M209.24,78.3h-9.17c-15.45,0-26.93-11.89-26.93-27.73,0-13.46,11-27.72,29-27.72H208L206.63,30l-3.71-.22c-12.67,0-22,8.87-22,20.75,0,14.42,11,20.76,19.17,20.76h10l.79,0,5.53-43.54a6.25,6.25,0,0,1,6.18-5.86c3.25,0,5.31,1.19,6.89,6.49L240.7,65.7h.16L252.1,28.39c1.59-5.3,3.65-6.49,6.9-6.49a6.24,6.24,0,0,1,6.17,5.86l6.42,50.54h-7.76l-5.31-45h-.16L246.48,72c-1.66,5.46-2.93,6.34-5.62,6.34h-.16c-2.7,0-4-.88-5.63-6.34L223.19,33.31H223l-5.3,45h-8.49Z" transform="translate(-4.91 -6.08)"/><path class="cls-4" d="M276.26,78.3V22.85h14c15.68,0,27.17,12.83,27.17,27.72S306,78.3,290.28,78.3h-3.41v-7h4c10.38,0,18.77-9,18.77-20.76,0-12.2-8.95-20.75-21.46-20.75H283.7V78.3Z" transform="translate(-4.91 -6.08)"/><path class="cls-5" d="M325.05,78.3V22.85h7.44V78.3Z" transform="translate(-4.91 -6.08)"/><path class="cls-6" d="M125.37,68.51A48.89,48.89,0,1,1,76.48,19.62,48.89,48.89,0,0,1,125.37,68.51Z" transform="translate(-4.91 -6.08)"/><path class="cls-7" d="M98.57,110.41a44.22,44.22,0,0,0,7.7-7.12,49.5,49.5,0,0,0,6.48-9.79h5.76l.37-.63h-5.81a55.6,55.6,0,0,0,5.51-24h6.79v-.64h-6.79a55.6,55.6,0,0,0-5.51-24h5.81l-.37-.63h-5.76a49.5,49.5,0,0,0-6.48-9.79,44.22,44.22,0,0,0-7.7-7.12h3.12c-.36-.21-.72-.43-1.09-.63H97.66a38.54,38.54,0,0,0-11.9-5.48,49.37,49.37,0,0,0-18.56,0A38.65,38.65,0,0,0,55.3,26H52.36l-1.09.63H54.4a43.87,43.87,0,0,0-7.7,7.12,49.11,49.11,0,0,0-6.49,9.79H34.46l-.38.63H39.9a55.46,55.46,0,0,0-5.51,24H27.6c0,.11,0,.21,0,.32s0,.21,0,.32h6.79a55.46,55.46,0,0,0,5.51,24H34.08l.38.63h5.75a49.11,49.11,0,0,0,6.49,9.79,43.87,43.87,0,0,0,7.7,7.12H51.27l1.09.63H55.3a38.7,38.7,0,0,0,11.91,5.48,49.32,49.32,0,0,0,18.55,0A38.54,38.54,0,0,0,97.66,111h2.94c.37-.2.73-.42,1.09-.63ZM71.68,20.26a17.06,17.06,0,0,0-4.72,3A24.4,24.4,0,0,0,64.26,26H56.45A37.08,37.08,0,0,1,71.68,20.26ZM47.18,34.15a43.23,43.23,0,0,1,8.32-7.54h8.23a49.55,49.55,0,0,0-8.16,16.91H40.93A48.41,48.41,0,0,1,47.18,34.15Zm-6.57,10H55.39a91.09,91.09,0,0,0-3.16,24H35A54.77,54.77,0,0,1,40.61,44.15ZM35,68.83H52.23a91.09,91.09,0,0,0,3.16,24H40.61A54.81,54.81,0,0,1,35,68.83Zm12.16,34a48.41,48.41,0,0,1-6.25-9.37H55.58a60.57,60.57,0,0,0,3.69,9.72,39.71,39.71,0,0,0,4.46,7.19H55.5A43.23,43.23,0,0,1,47.18,102.87ZM56.45,111h7.8A24.46,24.46,0,0,0,67,113.8a17.06,17.06,0,0,0,4.72,3A37.08,37.08,0,0,1,56.45,111Zm19.71,6a14,14,0,0,1-8.79-3.75A24.52,24.52,0,0,1,65.09,111H76.16Zm0-6.66H64.55c-3.4-4.11-6.27-9.94-8.31-16.91H76.16Zm0-17.54H56.06a90,90,0,0,1-3.2-24h23.3Zm0-24.68H52.86a90.42,90.42,0,0,1,3.19-24H76.16Zm0-24.67H56.24a59.71,59.71,0,0,1,3.6-9.44,38.26,38.26,0,0,1,4.71-7.47H76.16Zm0-17.54H65.1a23.28,23.28,0,0,1,2.27-2.28A14,14,0,0,1,76.16,20Zm36.2,66.89H97.57a91.08,91.08,0,0,0,3.17-24h17.2A54.8,54.8,0,0,1,112.36,92.87Zm5.58-24.68h-17.2a91.08,91.08,0,0,0-3.17-24h14.79A54.77,54.77,0,0,1,117.94,68.19Zm-12.16-34A48.45,48.45,0,0,1,112,43.52H97.39A60.57,60.57,0,0,0,93.7,33.8a39.19,39.19,0,0,0-4.47-7.19h8.24A43.17,43.17,0,0,1,105.78,34.15ZM96.52,26H88.71A25.28,25.28,0,0,0,86,23.22a17.35,17.35,0,0,0-4.72-3A37.13,37.13,0,0,1,96.52,26ZM76.8,20a14,14,0,0,1,8.79,3.75A24.6,24.6,0,0,1,87.88,26H76.8Zm0,6.66H88.42c3.4,4.11,6.26,9.94,8.31,16.91H76.8Zm0,17.54H96.91a89.61,89.61,0,0,1,3.19,24H76.8Zm0,24.68h23.3a90.06,90.06,0,0,1-3.19,24H76.8Zm0,24.67H96.73a59.71,59.71,0,0,1-3.61,9.44,37.34,37.34,0,0,1-4.71,7.47H76.8Zm0,17.54H87.87a24.52,24.52,0,0,1-2.28,2.28,14,14,0,0,1-8.79,3.75Zm4.49,5.71a17.07,17.07,0,0,0,4.72-3,25.28,25.28,0,0,0,2.7-2.76h7.81A37,37,0,0,1,81.29,116.75Zm16.18-6.34H89.23c3.36-4.21,6.16-10,8.16-16.91H112a48.45,48.45,0,0,1-6.26,9.37A43.17,43.17,0,0,1,97.47,110.41Z" transform="translate(-4.91 -6.08)"/><path class="cls-8" d="M120.86,48.21l-.08-.15.41.92c.08.18.09.22.14.34l.41,1a.63.63,0,0,0,.1.12l-.27-.81c-.12-.31-.3-.59-.42-.9,0-.13-.06-.26-.11-.38s0,0,0,0v0c-.11-.22-.21-.45-.32-.67,0,0,0,0,0,0s.22.55.24.65Zm.39.6c-.23-.53-.47-1-.72-1.56-.06-.14-.13-.27-.2-.41l.19.41C120.75,47.78,121,48.28,121.25,48.81Zm-2.61-2.75h0l0,0,0,0,0,0h0s0,.09,0,.1S118.62,46.05,118.64,46.06Zm-6.3-3h0a.25.25,0,0,1-.1-.08h0a.18.18,0,0,0-.06.1h0s.06,0,.13.11h0a.14.14,0,0,0,0-.09s0,0,0-.06Zm6.54,3.21s0,0,0,0,0,0,0-.06h0s0,0,0,0,0,0-.08-.07l0,0,0,0h0l.1.11A.21.21,0,0,0,118.88,46.3Zm-5.81-4.89,0,0-.15-.23,0,0h0c0,.16,0,.18,0,.28a2.22,2.22,0,0,0,.37.47s0-.05-.06-.13l-.06-.12C113.11,41.54,113.1,41.47,113.07,41.41Zm7.08,5.06.09.2C120.22,46.61,120.18,46.54,120.15,46.47Zm.16.34-.07-.14.09.17Zm-.31-.63.15.29Zm-.71-1.32v0s0,0,0,0Zm.64,1.18a.56.56,0,0,1-.05-.08l.12.22A.91.91,0,0,1,119.93,46Zm.93,2.29v0c.66,1.54.66,1.54.73,1.68-.29-.75-.4-1-.6-1.46,0,0-.36-.8-.4-.84Zm-.34-.76-.06-.17-.07-.15c0-.1-.08-.22-.13-.32a1.23,1.23,0,0,0-.14-.25l.26.57.14.33ZM108.06,34c0-.07,0-.07-.07-.13a.88.88,0,0,1-.14-.17l-.07-.08a.53.53,0,0,1-.13-.16l0-.05a.08.08,0,0,0,0,0s0,.06,0,.08c.15.19.07.15,0,0h0s0,.05,0,.07l.14.12,0,0a.28.28,0,0,1,.17.1c.08.08.15.18.11.19S108.06,34,108.06,34Zm-.52-2.07,0,0h0a0,0,0,0,1,0,0h0Zm.29.26s0,0,0-.06h0s0,0,0,0h0c0,.05,0,.07.09.1h0S107.81,32.19,107.83,32.19Zm-.18.26h0c0,.06.19.25.28.34h0s0,0,0-.06l-.1-.11A.76.76,0,0,1,107.65,32.45Zm1.45.82-.18,0h0s0,.16,0,.16.14.12.2.19a1.31,1.31,0,0,0,.34.24c.15,0,.15,0,.45.35h0s.08,0,.34.25c0,0,0,0,0,0h0s0,0,0,0,0-.08,0-.13l-.32-.32s0-.06,0-.09,0,0,0,0l-.07-.06-.17-.16c-.35-.24-.46-.3-.46-.3S109.14,33.28,109.1,33.27Zm.28-.15a4.13,4.13,0,0,0-.53-.45c-.08,0-.23-.09-.32-.15s-.15-.11-.18-.11,0,.1.07.13c.28.25.34.36.34.4s0,0-.29-.19l-.25-.18c0,.1.55.68.55.69s0-.15,0-.16h0l.2,0s.08,0,.13,0,.15.08.49.31a1.46,1.46,0,0,0-.07-.19A2.06,2.06,0,0,0,109.38,33.12Zm-1.94.48h0c-.06,0,0,.13.12.18s.09.06.09,0a.44.44,0,0,0-.08-.12A.27.27,0,0,0,107.44,33.6Zm1,2.79c.14.09.26.21.4.29a1,1,0,0,0,.31.14l-.13-.17c-.08-.11-.06-.15,0-.18a.16.16,0,0,0,0-.09.43.43,0,0,0-.12-.07.72.72,0,0,1-.28-.22.64.64,0,0,0-.25-.18l-.08,0c-.06,0,0,.12-.07.12a.71.71,0,0,1-.22-.1.45.45,0,0,1-.06.12.86.86,0,0,0,.21.18C108.17,36.29,108.3,36.32,108.41,36.39Zm1.27.68h0c.31.12.31.12.74.9,0,0,.13.06.19,0a0,0,0,0,1,0,0c.11,0,.17.11.26.13s.12.07.2.08v0h.18c.09,0,0-.15.07-.18s.12.07.18.08l0-.05c-.23-.27-.25-.34-.23-.45h0v0c0-.08-.21-.22-.28-.26a1.38,1.38,0,0,1-.39-.32c-.38-.37-.49-.48-.39-.56s0,0,0-.2.08-.06.1-.1v0c-.4-.52-.95-.92-1.37-1.44h0c-.08,0-.43-.22-.44-.36l-.1-.09.09.14h-.09c0,.28,0,.26-.1.2a1.33,1.33,0,0,1-.17-.16h0c-.22,0-.29-.22-.48-.23h-.1l.36.38s0,.22,0,.22h0c-.07,0-.13-.07-.2,0l.07.13c.07.11.18.16.23.28s0,.13.09.18.35.39.19.43c0,.1.1.12.16.19a1,1,0,0,1,.12.19v0l.09.14c.24.1.37.32.34.4s0,.06,0,.1A1,1,0,0,0,109.68,37.07Zm.88,1.51s.34.32.34.32L111,39h0l.14,0s0,0,0,0a.42.42,0,0,0,0-.12c0-.06-.06-.14,0-.14s.1.06.18.14l.14.13s0,0,0-.13-.06-.11,0-.14.07,0,.11,0l.06,0s0,0,0,0a.47.47,0,0,1-.06-.24h0s0,0,0,0h0s0,0,0,.05,0,0,0,0a1,1,0,0,1-.24-.19c-.06-.07-.1-.15-.16-.21a.32.32,0,0,0-.15-.06h0s0,.06-.08.07a.23.23,0,0,1-.2,0,.76.76,0,0,0,0,.15A.86.86,0,0,0,110.56,38.58Zm-2.77-3.08s.11.32.11.32.12.07.14,0,0-.09,0-.11a.23.23,0,0,1,.13,0,.94.94,0,0,1,.38.28l-.06-.1v0c-.08-.14-.23-.22-.3-.36s0-.07,0-.08,0-.08,0-.1-.15-.15-.22-.24-.05-.17-.1-.24a.43.43,0,0,0-.24-.16h0c-.13,0-.13,0-.14.09l.1.11c.12.11.25.23.23.32s0,.07-.25-.16c-.07-.07-.07-.07-.1-.08s.12.15.17.24A.71.71,0,0,1,107.79,35.5Zm6.4,7.85-.44-.87a.28.28,0,0,0-.06-.09c-.16-.21-.19-.22-.22-.23h0s0,0,0,.08,0,.13-.06.13h0s0,0,0,0a3.11,3.11,0,0,0,.23.28,2.25,2.25,0,0,1,.12.21c.12.18.12.18.13.22a2.59,2.59,0,0,0,.15.31c.09.13.11.13.15.12s-.06-.1,0-.17S114.16,43.35,114.19,43.35Zm-7.71-10.52s-.06,0-.06,0,0,.17.53.66c.08.07.17.1.24.17a.34.34,0,0,1,.11.14l0,0a.63.63,0,0,0,.23.08h.09a.35.35,0,0,1-.15-.09l-.3-.34s0,0,0,0,0-.05,0-.08-.08-.09-.1-.15a.05.05,0,0,1,0,0l0,0a2.49,2.49,0,0,1-.35-.29,2.09,2.09,0,0,0-.23-.29h0l0,0c0,.06.1.1.09.18S106.51,32.83,106.48,32.83ZM85,72l.09,0c.12,0,.22,0,.34,0l.39-.07A.77.77,0,0,1,86,72c.06-.09.16-.15.19-.26s0-.21,0-.31.1-.21.12-.33a.26.26,0,0,0,0-.11,1.57,1.57,0,0,1-.2-.3,2,2,0,0,1-.07-.54c0-.3,0-.31.26-.62.09-.12.09-.12.1-.21v0h0a1.13,1.13,0,0,0-.64-.13c-.5,0-.5,0-.63.18l-.06,0c-.11-.06-.11-.06-.63-.11v0a1.73,1.73,0,0,0-.07.31c0,.3,0,.3,0,.34S84.16,70,84,70a.18.18,0,0,0-.15.19.42.42,0,0,1,0,.28c-.1.18-.07.24-.06.28a1.1,1.1,0,0,0,.31.45.6.6,0,0,1,.21.21c.09.17.08.38.16.56s.2.29.28.45l.27,0C84.89,72.2,84.83,72.06,85,72ZM84.58,37h0a1.39,1.39,0,0,0-.85-.36h0c.07,0,.09,0,.12.12s0,.06.06.07A1.19,1.19,0,0,0,84.58,37ZM96,24.3l0,0h0c.4.12.42.12.43.11h.08a.33.33,0,0,0,.14,0h0s0,0-.1-.13h0s-.2,0-.2,0,0,0-.19-.06h0l.13.08h0l-.08,0s0,0-.07,0h0s-.1,0-.15,0l-.06,0ZM102,26.76h0l0,0Zm-4.58-2.47h0l0,0h0ZM102,26.77l0,0-.19-.11.24.14Zm-.34-.21-.3-.18h0A2.82,2.82,0,0,0,101.61,26.56Zm-4.55-1.81a1.76,1.76,0,0,1,.39.19h0s0,0,.06,0l.09.05h0s0,0,0-.05l-.07-.05a.53.53,0,0,0-.12,0c-.14-.07-.14-.07-.15-.06h0l-.19-.09-.12,0,0,0-.15,0h0Zm12.63,8.79ZM82.45,72c.06.16,0,.34.09.49a2.53,2.53,0,0,0,.45.4s.25.12.3,0,.14-.24.31-.16a.12.12,0,0,0,.05,0,.17.17,0,0,1,.07-.08c.07,0,.15,0,.22,0s.14-.18.25-.22.19.06.3.06h0c-.33-.55-.33-.55-.38-.85s-.32-.33-.43-.53a.79.79,0,0,1-.13-.28l.14-.78a.35.35,0,0,1,.16-.16c.09,0,.19,0,.28-.06l.09-.67c0-.1-.58-.72-.69-.67-.26.14-.41.22-.29-.17s.12-.44-.32-.83c-.18-.17-.27-.24-.34-.3l0,0c-.17.29-.72.38-.56.82h0c.34,0,.21.24.11.33a.62.62,0,0,1-.32.17.88.88,0,0,0-.22,0c0,.45,0,.45-.16.59s.31.6.54.55a.36.36,0,0,1,.38.09c.1.17-.09.32,0,.48a.52.52,0,0,1,.19.88C82.38,71.22,82.4,71.87,82.45,72Zm6-33.55.21-.43s0-.07,0-.11,0,0-.1-.13c-.34.09-.28-.08-.25-.14a1.4,1.4,0,0,1,.16-.19l0,0c-.42.19-.31-.27-.31-.27s.13-.12.19-.2c-.11-.06-.11-.06-.34,0h0c-.26.07-.26.07-.33,0-.31-.1-.45-.16-.38-.29a.4.4,0,0,1,.11-.12l-.09,0c-.3.29-.3.29-.36.29l0,0c-.08-.1,0-.23.19-.49s.36-.38.5-.6h-.05a1.39,1.39,0,0,0-.39.15c-.19.22-.39.49-.39.49s-.14.28-.23.41-.11.09-.16.16.15.18-.07.2c-.07,0-.08,0-.18.2.14.11.06.16-.14.29l-.24.17a.28.28,0,0,0,0,.1.62.62,0,0,0,.26,0,1.62,1.62,0,0,1,.74.05h0c.14,0,.27-.12.43-.1a.12.12,0,0,1,.1.15c.28,0,.3,0,.33.1,0,0,0,0,.17,0s.09-.26.25-.28h0c.16.06.18.29.18.29s-.09.19-.14.29.06-.17.18-.17h0c.06,0,.06,0,0,.28Zm8-13.72c0-.05-.1-.05-.11-.11a1.07,1.07,0,0,1,.45.23h-.06s.12.09.55.22h0l.12.05.12,0s0,0-.17-.11a.82.82,0,0,1-.2-.14h0c-.08-.06-.17-.08-.25-.15h0l-.15-.09h0s0,0-.06-.05h0l-.1,0h0s0,0-.18-.06l-.12-.05a3.37,3.37,0,0,0-.34-.1s0,0,.16.08l.45.22-.12-.05-.23-.09-.25-.1h0a0,0,0,0,0,0,0,.4.4,0,0,1,.13.08h0a3.1,3.1,0,0,0-.4-.13s-.06,0-.07,0A3.19,3.19,0,0,0,96.43,24.73ZM85.54,24.4c-.14.16-.7.21-.88.22a2.37,2.37,0,0,0-.51.09c-.08.16.33.6,1,.55,1-.06,1.1-.07,1.48.11.58.28,1.21.88,1,1.09s.61.19.88.38.24.21.25.27c-.22.14-.39-.07-.58-.1s-.3,0-.36.28c0,0,.39.35.63,0,.08-.13.28-.07.36.1.18.4-.06.44-.21.47s-.31.05-.31.48a.6.6,0,0,0,.08.36c.11.19.33.26.44.45a4,4,0,0,0,.19.43c.3.42.68.77,1,1.17.19.22.19.22.47.18.48-.07.72.46,1.17.47.18,0,.18-.26.18-.26a4.72,4.72,0,0,0,0-.58c0-.43,0-.43.19-.73s-.28-.47-.13-.75c.29-.55,1-.06,1.32-.58,0-.55.11-.63,1.07-.77.26,0,.59-.42.59-.43s.23-.32-.56-.65-.77-.34-.84-.46.06-.07.38-.06H94c0-.08,0-.16-.06-.24l.06-.07v-.06c-.41-.36-.46-.38-.78-.45s-.28-.09-.32-.17.08-.05.47,0c-.27-.26-1.07-.11-.94-.62,0,0,0,0,0,0l.16-.45-.06,0a3.21,3.21,0,0,0-.83,0c-.34,0-.56-.27-.88-.32l-.85-.07h-.29c-.46,0-.46,0-.49.07s-.06.05-.17,0a1.27,1.27,0,0,0-.9,0c-.15,0-1.14.11-1.15.11l-.65.06h-.07l-1,.32C85.5,24.29,85.52,24.31,85.54,24.4Zm34,21.17a2.25,2.25,0,0,0-.19-.38A.66.66,0,0,0,119.54,45.57Zm-2.24-3.73h0v0s0,0-.18-.23c0,0,0,0,0,0s-.07,0-.11,0c0,.22.2.37.22.59-.28-.08-.37-.14-.73-.61a.2.2,0,0,1,0,.07s-.06-.07-.11-.09a.15.15,0,0,0,0,.16,2.76,2.76,0,0,1,.37.61s0,0,.08,0-.14-.15-.1-.25,0-.08.17,0a.87.87,0,0,1,.29.52l-.06,0s-.07-.06-.11-.07l0,0c0,.05.1.25.1.26a1.71,1.71,0,0,1,.11.2s0,0,0-.06.14.16.2.29l.11.15a5,5,0,0,1,.28.52h0a0,0,0,0,1,0,0c.06.07.15.09.2.17a5,5,0,0,1,.4.65h0s0,0,0-.07h0a.58.58,0,0,1,.11.2v0s0,0,.08.08v0c.15.09.16.28.28.38h0v0h0c-.21-.4-.21-.4-.2-.43s.07,0,.48.58v0h0c0-.18-.11-.3-.17-.45v0h0l.12.17a.92.92,0,0,0-.09-.23l.07.06a0,0,0,0,0,0,0s0,0,.1.13l-.07-.19a.7.7,0,0,1,.11.17h0l-.15-.31h0v0h0l-.09-.16c-.5-.89-1-1.77-1.59-2.63v0l0,0,0,0a3.12,3.12,0,0,1,.2.35.3.3,0,0,0-.07-.1.61.61,0,0,0,.05.12c-.05,0-.07-.09-.12-.13l-.13-.15h0S117.5,42.11,117.3,41.84Zm.17,0h0ZM119.25,45a1.24,1.24,0,0,0,.1.2A.54.54,0,0,0,119.25,45Zm1.17,2.29a1.73,1.73,0,0,1,.15.36,2.53,2.53,0,0,0,.12.23h0a1,1,0,0,1,.13.23l.05.08h0s-.15-.41-.36-.91v0h-.1A0,0,0,0,0,120.42,47.28ZM101.73,26.63l0,0-.16-.09.13.08ZM119.35,45v0h0l.15.31h0l-.09-.16a1.46,1.46,0,0,1,.07.19s0,0-.1-.14l.3.6h0l.41.78h0a3.82,3.82,0,0,1,.36.73h.1l-.26-.56c-.14-.29-.29-.59-.43-.85l.06.12c-.1-.2-.21-.42-.34-.66l-.05-.08.06.11-.2-.36-.06-.11.06.11ZM102.41,27.48l.28.24c-.61-.38-.65-.39-.72-.39a3,3,0,0,0,.5.42l.09.07s0,0-.15,0-.07,0-.38-.13l-.12-.05h0a2.08,2.08,0,0,0,.47.22,5.68,5.68,0,0,1,.82.5c.19.1.7.48.76.52.24.07.24.07.8.6.09.09.49.53.49.54h0A6.17,6.17,0,0,0,107,31.35c.06-.07,0-.2.07-.25h0a1.46,1.46,0,0,0-.21-.26l.22.2c.52.31.52.31.65.56h0c.64.5,1.15,1.14,1.81,1.62l.12.07a1.51,1.51,0,0,0,.17.1c.2,0,.54.42.64.53.27.22.53.46.53.46l0,0h0a1.72,1.72,0,0,1,.49.51h0c.14.12.26.26.4.39l0-.07,0,0h0c.1,0,.11,0,1.2,1.13h0l0-.05h0l.28.28A10.25,10.25,0,0,1,114.63,38h0l0,0c.08.11.18.2.26.31s0,0,0,0c.35.47.65,1,1,1.42h0c.13.12.45.53.45.53a4.7,4.7,0,0,0,.33.4l0,.06c-.24-.35-.53-.75-.82-1.15a48.35,48.35,0,0,0-4.89-5.7c-1.65-1.53-3.9-3.52-5.7-4.89-.44-.32-.89-.64-1.35-.95l.63.44h0a5.78,5.78,0,0,1-.72-.49h0l-.26-.16h0l.46.32c.28.19.56.37.83.57h0l-.13-.08-.05,0c.33.27.69.5,1,.77h0l-.4-.24a.32.32,0,0,0,.1.1,5.28,5.28,0,0,1,.59.4c-.09,0-.09,0-.29-.14l0,0a8.33,8.33,0,0,1-.75-.5l0,0h0c-.33-.27-.75-.41-1.08-.69.1,0,.18.1.27.14l.07,0c.17.06.33.16.5.23,0,0,0-.05,0-.07a6.18,6.18,0,0,0-1.18-.75l-.46-.24-.25-.07-.07,0-.26-.11s0,0,0,.05Zm14.22,13.16h0c.3.4.3.4.37.51s.31.48.48.71l0,0-.52-.79h0c-.09-.14-.1-.14-.1-.14h0A2.52,2.52,0,0,1,116.63,40.64ZM102.31,27.4h0l0,0h0Zm1.51.57.19.13-.19-.13Zm-.51-.34-.14-.09.31.2Zm-6.23-3.41.1,0,.13,0h0l-.13-.08-.06,0h0S97.07,24.22,97.08,24.22Zm23.29,49h.48l.07-.8h-.24l-.11,0h-.06s-.07.37-.07.39-.09.19-.13.29h0A.11.11,0,0,1,120.37,73.21ZM120.27,88a.06.06,0,0,1,0,0s-.1,0-.45.23c-.16.11-.16.11-.47.06-.14,0-.14,0-.19-.06a.92.92,0,0,1,0-.31l-1,0c-.09-.09,0-.24-.11-.33s-.13.13-.21.19,0,0-.1-.08-.13,0-.55,1.91c0,0-.37,1.55-.53,2-.35.87-.87,1.67-1.26,2.53,0,.15-.12.24-.18.36-.08.37-.31.68-.4,1,.15,0,.19-.22.3-.3h0c0,.2-.27.44,0,.59h0A31.37,31.37,0,0,0,118,91.09l0-.08h.18l1.19-2.55,0-.08h0c.11,0,.11,0,.45-.23l0,0a2.26,2.26,0,0,1-.07.28c.08-.1.14-.21.21-.31l0,0h0l.11-.15S120.26,88,120.27,88ZM120,74.8c0,.21,0,.21.34,2.35.07-.11.21-.16.26-.28s0,0,0-.27c0,0,0-.65.2-.6s.12-.31.23-.44h0l.1.46h.07c.09-.26.09-.26.12-.28h0s0,0,0,.24v0a7.77,7.77,0,0,0,.26-1.28c0-.07,0-.07,0-.16a1,1,0,0,1,0-.8c.05-.12.17-.2.17-.35s0-.29,0-.35-.1.09-.17.1-.11,0-.12,0c-.09-.26.11-.5,0-.76l-.35,0s0,0-.12,0c0,.28-.06.67-.09.95v.1h0a1.8,1.8,0,0,1-.47,0s-.15.2-.2.77S120,74.8,120,74.8Zm-4.85-5.13h0a2.34,2.34,0,0,1,.72.15c.07-.5-.31-.94-.17-1.45.06-.25.08-.5.13-.75s.12-.25.15-.39a3.81,3.81,0,0,0-.29-1.3.48.48,0,0,0-.21.09c-.12.07-.25.13-.31.09-.24-.16-.29-.47-.52-.64-.25.26-.25.26-.43-.19h0c-.23.49-.24.51-.42.17l-.21.38s0,0,.07.27c0,0,.37,1.2,0,1.09-.05.45-.06.62-.17.67s0,0,0,.23a1.52,1.52,0,0,1,0,.35.49.49,0,0,1-.09.22c.09.07.26,0,.3.18s-.06.17,0,.24.16.12.17.23c0,.35-.11.7-.1,1.06C114.56,69.78,114.67,69.69,115.14,69.67Zm1.75-4.78c-.18.16-.18.16-.58.14h-.45a.43.43,0,0,0,0,.18c0,.09.08.14.1.22a4.1,4.1,0,0,1,0,.5c0,.43.14.85.14,1.29v0a.24.24,0,0,1,0,.08c0,.11-.1.19-.12.3s-.07.51-.13.75c-.13.52.23,1,.16,1.48.14.06.14.06.24.22h0c.08-.07.1-.18.18-.24s.2-.08.28-.16a2.18,2.18,0,0,1,.39-.34c.12-.08.28-.11.36-.25s-.21-.34-.22-.55.07-.36.06-.54-.08-.23,0-.35a1,1,0,0,0,.08-.39,1.55,1.55,0,0,0-.07-.23c-.1-.29.05-.59-.09-.87a.23.23,0,0,1,0-.09v0c0-.2,0-.41,0-.61s-.16-.18-.18-.31a1.17,1.17,0,0,1,0-.22Zm.39.12c-.07,0-.25-.07-.25-.07h0a.7.7,0,0,0,0,.14l.08.12a.38.38,0,0,1,.11.23c0,.2,0,.42.06.62a.49.49,0,0,1,.08.26c0,.13-.07.26-.06.4a2.59,2.59,0,0,0,.14.45,1.08,1.08,0,0,1-.07.54s0,0,0,.05a1,1,0,0,1,0,.27.54.54,0,0,1,0,.15c-.05.36-.05.36,0,.45.14.24.14.24.16.33.09-.11.12-.12.16-.13h0a1.43,1.43,0,0,1,0-.18c-.09-.71,0-1.41,0-2.12,0,0,0-.15,0-.18a1,1,0,0,1-.06-.42c0-.2-.22-.31-.24-.51a1.84,1.84,0,0,1,0-.4Zm2.1,19.12a19.5,19.5,0,0,0-1.28,2.49,6.11,6.11,0,0,1-.33.88c.07,0,.07,0,.15,0s.15-.14.25-.19,0,0,.09.32a4.8,4.8,0,0,0,1,0h0v0a.85.85,0,0,0,0,.3l.2,0a.48.48,0,0,0,.6-.17.34.34,0,0,0,0-.1,4.47,4.47,0,0,1,.32-1.23l.14-.37c.19-.52.38-1,.64-1.78h.32c.11-.37.26-.73.37-1.11a2.43,2.43,0,0,0,.09-.3c-.26.14-.26.14-.31.19s0,0,0,0a.81.81,0,0,1,0-.24,1.12,1.12,0,0,1,.11-.27v0a2.7,2.7,0,0,0,.12-.71,5.82,5.82,0,0,1,.26-.93l.19-.85s0,0-.17,0,0,0-.06,0a1.44,1.44,0,0,1,0-.28c-.17.06-.17.06-.21.23-.19.75-.27.63-.33.54s-.09.12-.17.13-.12,0-.13-.07c0-.55.15-1.09.15-1.64a2.26,2.26,0,0,0-.52,0,1.08,1.08,0,0,1-.18,0,.4.4,0,0,0-.41.18c0,.13,0,.26,0,.4a5.19,5.19,0,0,1-.27,1.81c-.07.09-.09.12-.18,1.24A4.37,4.37,0,0,1,119.38,84.13Zm-8-44.51a.54.54,0,0,1,.12.09c.08.08.09.2.16.28s.21.08.29.16a.63.63,0,0,1,.1.14c0-.11-.08-.44.07-.35a2.31,2.31,0,0,1,1,.93L114.25,42h0c.13,0,.15,0,.29.18l.67.65a0,0,0,0,1,0,0s.07,0,.32.38c.42.59.42.59.38.68s0,.39.21.38c-.07-.16-.12-.34-.19-.5s0-.34-.16-.43a1.26,1.26,0,0,1-.44-.83c.23.11.35.34.53.5l0-.08a1.71,1.71,0,0,0-.26-.3c-.25-.22-.55-.38-.79-.61a.33.33,0,0,1-.12-.26c-.38-.15-.38-.15-.43-.2s-.28-.26-.29-.26c-.18-.18-.29-.42-.47-.6s-.37-.24-.52-.4-.67-1-.67-1l.07,0a.22.22,0,0,1,0-.1h0c-.1-.37-.49-.42-.72-.64h0c-.1,0-.06.14-.15.16h0a1.19,1.19,0,0,0,.07.27l0,0-.15-.07c0,.09.09.17.09.27h0c-.13,0-.2-.17-.31-.26.09.2.09.2.06.26l-.16,0h0C111.08,39.33,111.54,39.46,111.33,39.62Zm-1.46,11.64a.64.64,0,0,1-.31.17c-.09,0-.09,0-.12.09l1.74,0-.18-.7v0l0,0a3.33,3.33,0,0,1,.25-.42s.12-.05.15-.12,0-.16.08-.18.11,0,.16.05l0,0c0-.06,0-.11,0-.17s.06,0,.19-.07.24,0,.25-.19c0-.3,0-.3.09-.33s.12-.06.18-.21a.16.16,0,0,1,.09-.06c0-.19-.23-.3-.22-.51s.2,0,.27-.13,0-.2.16-.23h0l.24,0,.13,0,0-.1a.18.18,0,0,1,0-.13s0,0-.12-.13a1.74,1.74,0,0,1-.39-.69.61.61,0,0,1-.05-.12l0,0a.36.36,0,0,0,0-.11,1.39,1.39,0,0,0-.39-.69h-.15s0,0-.18-.19c0,.06,0,.09,0,.1h0c-.08,0-.15,0-.23,0s-.12.12-.22.09c-.27-.09-.35-.4-.6-.51h0a1.82,1.82,0,0,0,0,.5c.11.79,0,.9-.11,1l0,0-.3.29c0,.06,0,.12,0,.18s-.11.17-.12.28v0l0,1,.22.43a1.4,1.4,0,0,1,0,1S109.9,51.24,109.87,51.26ZM106,32l.2.18s.62.49.79.64.43.18.51.43a3.25,3.25,0,0,0,.47.43h0l.11,0a1.4,1.4,0,0,1-.26-.33s0,0,0,0H108a3.12,3.12,0,0,0-.33-.41c-.24-.26-.51-.49-.73-.77a3.23,3.23,0,0,1-.31-.54,2.43,2.43,0,0,0-.48-.31c-.07,0-.18-.05-.86-.68L105,30.2c-.2-.22-.29-.52-.5-.74s-.56-.28-.67-.61l0,0h0l.08,0s-.81-.56-.87-.58l-.07-.05h0a7.47,7.47,0,0,0-1-.51h0c.16.11.24.16.31.22s0,0-.08,0-.15-.06-.19-.06.2.13.27.23l-.09,0v0c.12.12.12.12.13.15a1.16,1.16,0,0,1,.29.22l.08.1c.06.07.17.11.19.21h0l0,.06.93.81h-.08l0,0c0,.06,0,.06.2.26a.74.74,0,0,1,.17.12l1.09.9a.1.1,0,0,0,0,0l0,0a3.54,3.54,0,0,1,.84.93L106,32Zm11,29.6c.19-.39.82,0,.94-.5s.14-.59-.19-2.55c0,0,0-.08,0-.11-.26.12-.26.12-.34,0s0,0-.11-.6c0-.23-.31-.2-.4-.36h0l-.06,0a.33.33,0,0,1-.22-.27c-.16-.56-3.19-3.41-3.21-3.44s-.48,0-.68,0l.08.25c0,.06,1.67,5.83,1.62,7.27h0c-.43,0-.43,0-2.06.07l-.2-.06c-.09,0-.07.18-.16.23h0c-.09,0-.09,0-.29-.34,0,0-.28.69-.17.89s.11.22.08.57a.94.94,0,0,1,.32,1.12.69.69,0,0,0,0,.13s.09-.08.15-.12.09,0,.14.19c0,0,0,0,.15-.22.13,0,.2.11.3.14s.13-.28.27-.36c.2.09.25.41.37,1.26.31-.09.15.44.3.62.13-.17.13-.17.19-.19l.17.25.22-.42c.08,0,.08,0,.22.38.44-.28.26-1,.25-1.06-.12-.33.31-.4.36-.66s-.08-.51,0-.76,0-.15.11-.2h0c.07,0,.07,0,.16.13l.1.08c0-.36,0-.36.07-.4a.24.24,0,0,0,.12,0c0-.4.05-.44.12-.47a.4.4,0,0,1,.15.07l0,0h0c0-.15,0-.15.47-.72a4.25,4.25,0,0,1,.62.12ZM120.4,78.7h0c0-.16,0-.32.1-.47a2.06,2.06,0,0,1,.17-.33h0a0,0,0,0,0,0,0h0a1.52,1.52,0,0,0-.25.4s0,0,0,0a1.16,1.16,0,0,1,0,.19S120.46,78.52,120.4,78.7Zm.71-15.41c-.1-.07-.16-.19-.28-.24h0a1,1,0,0,0-.32.06c-.13.12-.08.31-.2.42s-.07,0-.34-.24a1.62,1.62,0,0,0-.23-.19c-.13,0-.14.24-.3.26h0c-.07,0-.08-.06-.2-.36s-.38-.37-.38-.37l-.17.09h0c-.35.2-.16.57-.28.85s0,.63,0,.94.16.47.15.73c0,.41-.15.79-.19,1.2a3.19,3.19,0,0,0-.13,1.19,9.35,9.35,0,0,1,0,1.06h0c.64,0,.8,0,1,1.3.06.53.22.5.37.46a.22.22,0,0,0,.14-.12s0,0,.12,0h.12l.14,0c0-.14,0-.15.07-.19h0a7,7,0,0,1,.36-1.43c.08-.3.08-.3.35-.52h0s0,0,.12.32a1.24,1.24,0,0,0,.05.19s.08-.1.17-.6l.34-2c0-.32,0-.64,0-1s.23-.53.21-.83a5.81,5.81,0,0,0-.42-1.49C121.14,63.28,121.14,63.28,121.11,63.29Zm2.42-7.52c0-.11-.1-.54-.1-.55a2.25,2.25,0,0,1-.12-.41c-.09-.29-.22-.73-.62-1.77h0c-.41-1-.41-1.06-.46-1.15a17.59,17.59,0,0,1-.85-2v0h0a11.71,11.71,0,0,1,.57,1.25l.17.35a17.51,17.51,0,0,0-1-2.36v0l0,0,0,0v.08a1.42,1.42,0,0,1-.2-.3h0l0-.06s0,.06,0,.09h0a2.6,2.6,0,0,1,.07.45c-.21-.11-.28-.36-.49-.47h0s0,0-.15-.09h0l0,.08h0a13.08,13.08,0,0,0,.66,1.61h0A48.71,48.71,0,0,1,122.61,56h.72c0-.12,0-.13,0-.2s0,0,.07.16l.12,0h0v0a1.59,1.59,0,0,0,.08.22,2.93,2.93,0,0,0-.07-.41Zm-6.79,5.94a3.18,3.18,0,0,0-.33-.08h0a1.47,1.47,0,0,1-.1.22,2.88,2.88,0,0,1-.27.22c-.09.08,0,.21-.08.29s0,0-.15,0l-.07,0c-.11.14,0,.57-.23.48-.08.5-.08.5-.3.27l-.06-.05a.25.25,0,0,0,0,.21.54.54,0,0,1,0,.4c-.06.49-.06.49-.42.66.06.14.14.33,0,1.08.16.1.16.1.32.4s.13.23.38.1h0c.24-.14.28-.14.39.1v0c0-.42,0-.42,0-.45a.5.5,0,0,1,0-.55c0-.06,0-.07.56,0,.33,0,.33,0,.4,0s.15-.11.34,0a.84.84,0,0,0,.18.06c.09-.11.12-.26.22-.36s.07,0,.13,0,.15,0,.19-.27c0-.12-.08-.2-.11-.3s0-.2,0-.3l-.08,0c-.22.1-.46-.43-.38-.7A1.86,1.86,0,0,1,116.74,61.71Zm-9.2-30h0a.15.15,0,0,1,0,.07h0a2.66,2.66,0,0,0,.4.34s0-.05.29.21c0-.05,0-.09.13,0s.28.17.36.19l-.1-.12-.34-.29-.2-.17-.23-.25a0,0,0,0,0,0,0s0,0-.12,0-.1-.05-.14,0h0s0,0,0,0ZM123,57.52a41,41,0,0,0-2.48-7.66l0,0v0s-.37-1.25-.61-1.25l-.11-.13,0,0c-.2-.18-.22-.53-.54-.59h0a.53.53,0,0,1,0,.12l0,0v0a1.23,1.23,0,0,0,.19.8c.39.68.29.94.25,1-.39-.09-.34-.76-.85-.68h0c-.16-.05-.16-.05-.7-.89h-.08c-.13-.06-.21-.21-.35-.26s-.11,0-.33,0h0c-.12-.05-.18-.17-.28-.22h0l0,.11c0,.13.16.22.17.36s-.22.49-.06.76.24.74.13.88.66,1.49.66,1.5a.87.87,0,0,1,.15.5l.09.41a3.7,3.7,0,0,0-.36-1s-.66-1.49-.65-1.54,0-.06,0-.06c-.07-.16-.57-1.19-.57-1.19-.28-.44-.68-.79-1-1.22v0a1.11,1.11,0,0,1-.16-.6s.05-.07.05-.11a2.33,2.33,0,0,0-.11-.28c-.08-.27-.25-.49-.35-.75,0-.11-.14-.21-.18-.32s0-.09,0-.14,0,0-.06,0,0,.06-.06,0-.14-.11-.22-.15c.06.17-.11.09-.13.08a.6.6,0,0,1-.13-.09h0c0,.13,0,.13,0,.14v0s-.07,0-.1,0,0,.1-.08.13h0l-.14-.1a.27.27,0,0,0-.33-.06s0,.08-.07.08-.11,0-.16,0,0,.11-.07.13l-.43.09c-.08,0-.18.25-.18.35a.42.42,0,0,1,0,.13s0,0-.15,0-.15.1-.15.24a.26.26,0,0,1-.12.27c.13.14.15.17.48,1,.17.42.21.49.35.6s.21.25.17.39a.31.31,0,0,1,0,.2l0,0-.18,0-.19,0h0l-.12,0c-.07.23-.07.23-.24.27,0,.21.35.47.09.61-.07.16-.07.16-.25.27,0,.42,0,.42-.43.52a1.34,1.34,0,0,1,0,.2l0,0a.21.21,0,0,1-.13-.05l-.05,0-.45.62a3.11,3.11,0,0,0,.23,1,50.75,50.75,0,0,1,5,4.79v.05a1.35,1.35,0,0,1,0,.23c.18.07.19.3.36.38l0,0c.62.26.58.62.56.85a.18.18,0,0,0,0,.18l.77-.37c.32-1,.75-2,1.12-3a.66.66,0,0,0,.05-.15c-.23-.5-.23-.5-.49-.67a.16.16,0,0,1-.08.06,8.28,8.28,0,0,1-.73-1.38c0-.13,0-.26,0-.39l.08.4.61,1.19a.18.18,0,0,1,.09-.06.88.88,0,0,1,.45.5c.13.28.44.39.63.6a2.3,2.3,0,0,1,.25.35l.28-.58v0l0,0c.72.88,1.68,2.07,2.33,3l0-.2,0-.08h0Zm-1-6.89-.08-.08a.43.43,0,0,0,0,.05c.41,1,.9,2.06,1.23,3.13l0,.18a29.78,29.78,0,0,1,.94,3.21c0,.06,0,.12,0,.17s0,.05,0,.08a44.68,44.68,0,0,0-1.22-4.31c-.46-1.38-1-2.73-1.55-4.05l0,0a3.15,3.15,0,0,0-.22-.45A18.11,18.11,0,0,1,121.9,50.63Zm2.21,6.74,0,.13A.63.63,0,0,0,124.11,57.37Zm-6.52,7.29-.06,0h0a1.06,1.06,0,0,0-.16.74s0,.05.13.17.08.09.09.14l.14.92c0,.13,0,1,0,1.28a2.42,2.42,0,0,0,0,.89.57.57,0,0,0,.27-.07,3.9,3.9,0,0,0,0-1c0-.48,0-1.11,0-1.12s.1-.13.11-.22c0-.39.18-.77.19-1.17a2.33,2.33,0,0,0-.13-.52c0-.13,0-.25,0-.38s-.27-.43-.29-.44l-.14.11C117.92,64.16,117.93,64.76,117.59,64.66Zm6.72,11.5s0,0,0,.08a.76.76,0,0,1-.11.34h0s0,0,0-.11v-.06c0,.09,0,.19,0,.28s-.06.36-.08.54,0,.36-.06.45a6.24,6.24,0,0,0,.27-.94s0,0,0,0a.66.66,0,0,1,0-.14,2,2,0,0,1,0-.32C124.34,76.17,124.34,76.16,124.31,76.16Zm-4.08,12h0c0,.06-.09.13-.14.2s0,0,0,0-.15.26-.27.36h0c0-.13.06-.23.09-.34-.17,0-.27.16-.42.2l-1.23,2.55,0,.08H118L117,93c0,.23-.1.4-.67,1.33v0c.17,0,.69-.69.69-.7.22-.34.26-.34.3-.35s0,0,0,.18v.14c.09,0,.09,0,.46-.53.18-.27.18-.27.25-.26a2.35,2.35,0,0,0,.17-.24c.29-.49.68-.9,1-1.37.11-.17.08-.38.16-.56s0-.08.25-.55c0,0,0,0,0,0a8.56,8.56,0,0,1,.29-1C120,88.88,120.23,88.13,120.23,88.13Zm1.61-22.51a.2.2,0,0,1,.13,0l.07,0h.1a14.42,14.42,0,0,0-.45-2.34l0,0a9.43,9.43,0,0,1,.22,1.18l-.28,1.22a4,4,0,0,1-.1,1.2c-.33,1.86-.43,1.91-.46,1.93h0c-.05-.06-.06-.07-.14-.39,0-.09,0-.09,0-.11s0,.08-.19.14a2.21,2.21,0,0,0-.08.26c-.55,1.56-.28,1.92-.19,2l0,0a.31.31,0,0,1,.07-.09l0,0a.47.47,0,0,1,0,.36,9.08,9.08,0,0,1,0,1.19.94.94,0,0,0,.45,0,.61.61,0,0,1,.51,0c.45.14.66.2.73.41,0-.06,0-.06,0-.44a1.33,1.33,0,0,0-.1-.77,6.67,6.67,0,0,1-.17-1c0-.09,0-.41,0-.47a6.32,6.32,0,0,1,.23-2.08C122.37,67,121.33,66.45,121.84,65.62Zm1.07,5.7c0,.05,0,.05-.08.07s0,0-.09-.12,0-.06,0-.06-.16,0-.19.12c-.08.25,0,.51-.1.75a3,3,0,0,1-.15.74h0a.49.49,0,0,0-.56-.32l-.08,0s0,.1-.07.53c.1,0,.15-.09.24-.1s.07.07.07.54a1.66,1.66,0,0,1-.19.48c-.07.34-.05.38,0,.49a3.71,3.71,0,0,1-.32,1.89h0s0,0,0-.2c-.1.31-.21.11-.21.1a1.19,1.19,0,0,1-.06-.37c-.09.42-.09.42-.27.39h0c-.09.22,0,.45,0,.67s-.24.25-.31.42v0a3.21,3.21,0,0,1,.09.8,1.41,1.41,0,0,1,.29-.43h0s0,0,.1.31h0c.06-.08,0-.2.11-.28a.48.48,0,0,1,.19-.15l0,0c0,.16-.07.32,0,.49a2.85,2.85,0,0,1,.44-.78l.11-.3c.17-.56.21-1.15.38-1.71a3.78,3.78,0,0,1,.27-.53,9.79,9.79,0,0,1-1.24,3.53h0c-.09-.17-.07-.24,0-.53-.18.1-.14.37-.34.46a.69.69,0,0,1,0-.13c-.27.21,0,.65-.36.82a.11.11,0,0,0,0,.08c.18-.14.18-.14.25-.16h.07c.66,0,.66,0,.8.07.06.57-.27,1.11-.12,1.69.08,0,.08,0,.23-.12a.28.28,0,0,0,.13,0c.29-.76.29-.76.44-.82h0a.43.43,0,0,1,0,.25l0,0a.38.38,0,0,1,.15,0,24.89,24.89,0,0,1-.57,2.67c0,.1-.08.18-.1.27a.36.36,0,0,0,0,.1.58.58,0,0,1,.35-.19s0,0,0,.38l.08-.07.06-.06h0c0,.19-.19.4,0,.57a2.55,2.55,0,0,1,.13-.29h0s0,.08,0,.25a.78.78,0,0,0,0,.14c0,.12,0,.24,0,.36a2.71,2.71,0,0,1-.07.32l-.07.29c.07,0,.08,0,.26-.56a.64.64,0,0,1,0-.07l0-.12s0,.14-.12.17a4.55,4.55,0,0,1,.1-.59c.09-.31.22-.59.31-.89s.16-.57.23-.78l-.06.31-.15.47c-.35,1.2-.35,1.2-.36,1.28s.06-.1.1-.14a3.25,3.25,0,0,1-.41,1.1h0s.11-.75.21-1.28a1.24,1.24,0,0,1-.1.2h0c-.12-.19-.12-.19,0-.54l0,0-.08.07s0,0,0-.24c-.42,1.24-.42,1.24-.48,1.46h-.33c-.27.79-.61,1.56-.87,2.36,0,.09-.05.27-.16.89h0c.19-.11.19-.11.2-.1s0,.18,0,.27,0,0,0,0,.07,0,.09.11h0s.65-1,.7-1.16a1.71,1.71,0,0,1,.33-.57h.06a.49.49,0,0,1,0-.11c.14-.46.51-.8.66-1.26.08-.22.18-.44.25-.66,0,0,.51-1.51.54-1.6a.75.75,0,0,0,.06-.13l0,0s.18-.74.18-.75l0-.62c0,.06,0,.07,0,.08s0,0,0-.16,0-.11,0-.26h0c-.15.13-.15.13-.15.14a2.14,2.14,0,0,0-.09.27c0,.09-.07.17-.1.25a2,2,0,0,1,.4-.87c.28-2.77,1-5.47,1.43-8.22,0-.24,0-.47,0-.7s0-.33,0-.49,0,0-.08-.82a.49.49,0,0,1,0,.16.7.7,0,0,1,0-.14c-.07.18-.07.18-.08.19h0a3.55,3.55,0,0,1-.09-.62c-.1,0-.12,0-.15-.11l-.05,0h0l0-.09v0c0,.21,0,.21-.11.33a.28.28,0,0,1-.06-.09l-.15.28h-.06l0,0c-.15.12-.08.32-.14.48-.09,0-.09,0-.29-.22l0,0h0c0-.06,0-.06-.12-.29l-.09-.22c-.14.12-.2.68-.21.82a22.91,22.91,0,0,1-.52,3.39l.43-2.78ZM109.44,34h-.08s0,0,.06.08l.11.11h0a.73.73,0,0,0,.31,0l-.16-.17a.12.12,0,0,0-.09-.06h-.07l-.15-.09,0,0s.1.11.07.11Zm5.23,6h0v0h0Zm.89,1.6h0s0,0,0,.11a.61.61,0,0,1,0,.11h0a1.65,1.65,0,0,0,.09.16,2.52,2.52,0,0,0,.27.33c0-.06,0-.13,0-.19l.07-.07-.18-.29a.19.19,0,0,0-.07-.08.71.71,0,0,1-.18-.16h0l0,0h-.06S115.59,41.54,115.56,41.53Zm-5.87-8Zm4.22,5.73s-.21-.26-.32-.26,0,.13,0,.13a2.3,2.3,0,0,0,.28.34,2.87,2.87,0,0,1,.34.44,2.85,2.85,0,0,0,.27.32c.21.3.24.35.21.39l.22.14c0-.13,0-.1.11-.06s.3.27.37.36a1.28,1.28,0,0,1,.17.26h0s0,0,0,0-.18-.3-.25-.46-.25-.25-.35-.39-.1-.21-.16-.3l-.12-.12s0,0,0,0h0l-.11-.09a1,1,0,0,1-.38-.44s0,0,0,0S114.07,39.52,113.91,39.27Zm-1.27-1.69s0,0,0,.08,0,.16,0,.17,0,.15,0,.23-.06,0-.08,0a2.68,2.68,0,0,1-.28-.18.32.32,0,0,1,.07.18,1.05,1.05,0,0,0,.13.21c0,.06.06.13.1.19a2.09,2.09,0,0,0,.2.22l.29.24a.75.75,0,0,0,.21.13s.09,0,.13,0c0-.16,0-.19,0-.19h.12s0,0,0,0a3.25,3.25,0,0,0-.35-.62,2.55,2.55,0,0,1-.14-.35l-.11-.09-.15-.14s0,0,0,.05S112.73,37.57,112.64,37.58Zm-.29-.51s0,0-.06,0,0,0-.09,0h0s0,0,0,.06,0,.06-.08,0L112,37h-.1c0,.05,0,.1,0,.15a.78.78,0,0,1,.09.21.05.05,0,0,1,0,.05s0,0-.06,0l.14.15a1.74,1.74,0,0,0,.12.14l.11.06.13.1c.08.05.12.07.13,0s-.16-.24,0-.26,0,0,0-.13,0-.15.07-.1l.07,0,.08,0a.65.65,0,0,0-.14-.25A1.84,1.84,0,0,0,112.35,37.07Zm3.1,4.31h0a.85.85,0,0,0-.09-.19l0,0a.58.58,0,0,0-.12-.1l-.16-.18h0a.12.12,0,0,0-.08,0s0,0,0,0a1.7,1.7,0,0,1,.2.33,0,0,0,0,0,0,0h0a2.42,2.42,0,0,1,.25.27l0,0C115.43,41.42,115.42,41.39,115.45,41.38Zm-.22.08h0c0,.08.12.14.18.22s.13.2.34.6a1.22,1.22,0,0,0,.21.33,2,2,0,0,1,.3.32h0c-.06-.12-.08-.25-.14-.36s-.06-.15-.07-.16l0,0c-.09-.14-.22-.24-.31-.38s-.18-.33-.3-.48a1.2,1.2,0,0,0-.24-.24s0,0-.06,0,0,0,.1.2Zm-.68-2.81h0s0,0,0-.06l-.66-.74-.29-.2h0s0,0,0,0,.82.85.83.86c.2.24.37.51.57.75l-.14-.24c-.26-.37-.26-.37-.25-.39S114.53,38.64,114.55,38.65Zm-2,.45.06,0a.28.28,0,0,1,.06.08h0a.3.3,0,0,1,.17,0s.06,0,0-.06a.76.76,0,0,0-.08-.15c-.06-.09-.18-.29-.11-.35h0s-.09-.11-.11-.11v0c0,.06,0,.1,0,.1s0,0,0,.07,0,.08-.09,0-.1-.06-.12,0l.11.16A.55.55,0,0,0,112.54,39.1Zm2.26,2h0c-.09-.11-.26-.42-.23-.47s-.07-.14,0-.16l-.16-.2v-.05a.88.88,0,0,1-.23-.26,1.51,1.51,0,0,0-.09-.18s0,0,0,0,0,0,0,0l-.06,0a.46.46,0,0,0-.19-.09h0c-.07,0-.13,0-.2,0l-.08,0h-.11a7.84,7.84,0,0,0,.53.59c.1.11.24.18.35.29s.13.2.22.29Zm-1-.83c.21.2.22.2.27.22a1,1,0,0,1,.3.2.75.75,0,0,0-.18-.17c-.32-.23-1-.94-.91-1a.1.1,0,0,1,.07,0c.06,0,.11,0,.17,0l.15,0h0a.66.66,0,0,1,.22.1h0l-.11-.14c-.18-.23-.22-.28-.25-.28h-.15a1.28,1.28,0,0,1-.22-.15c-.1-.08-.16-.19-.29-.23h0c-.05,0,0,.09,0,.11s0,0,.13.23,0,.24,0,.22C113.22,39.67,113.46,40,113.76,40.29Zm-.78-.61a.53.53,0,0,0-.08-.17l-.08-.13h0s0,0-.07,0h0Zm-2.66-3.18h0a3.27,3.27,0,0,0,.61.56,2.06,2.06,0,0,1,.4.31c.09,0,.09,0,.09-.05s0-.08,0-.12,0,0,0,0,0,0,0,0h0c.06,0,.12.08.19.11a.35.35,0,0,1,.11,0c0-.05.09,0,.08-.1l-.14-.37a.42.42,0,0,0-.16-.1,1.48,1.48,0,0,1-.22-.16c-.08-.07-.1-.09-.13-.09h0s0,0-.08,0a2.92,2.92,0,0,1-.28-.21l-.25-.13h0l-.11-.08h0s0,0-.06.06l0,0a1.21,1.21,0,0,0,0,.19S110.33,36.45,110.32,36.5Zm5.36,3,0,0h0a.49.49,0,0,0-.07-.11l0,0,0,.08h0Zm.73,2v0c0-.13-.17-.2-.24-.31s-.08-.17-.13-.25l-.06-.09a1.42,1.42,0,0,1-.16-.3h0l0,0,0-.06v0s0,0-.2-.13-.12-.08-.15-.07a.47.47,0,0,0,0,.12c0,.08.07.2,0,.2h0l-.15-.07a.8.8,0,0,0-.15,0l0,0a.69.69,0,0,1-.21-.2h0a.82.82,0,0,0,.24.34,1.29,1.29,0,0,1,.19.21.59.59,0,0,1,.08.17.61.61,0,0,0,.09.18c0,.07.08.15.13.21a.22.22,0,0,0,.1.09c.1.06.13.12.3.38h0l.07.1s0,0,0-.12.2.08.31.11h0s0,0,0-.1c-.13-.32-.14-.36-.11-.41S116.33,41.43,116.41,41.52Zm-1.2-2.45a.56.56,0,0,1,.07.13s0,.11.07.16v0h0a.43.43,0,0,1,.1.1h0a2.14,2.14,0,0,1,.33.43l.07.08h0s0,0-.05-.1-.08-.16-.08-.16h0l-.09-.14-.47-.5Zm-.59-.12a6.88,6.88,0,0,0-1.11-1.22h0a.49.49,0,0,1,0,.28h0c-.07,0-.12-.12-.21-.12h0s-.08,0-.12,0a1.35,1.35,0,0,0,.21.49c.07.09.38.56.3.64.14.12.21.28.36.39h0v-.07h0a1.1,1.1,0,0,1,.24.32s0,0,.22.2l0,0s0-.06,0-.1.18.17.18.18a1.36,1.36,0,0,0,.2.25.76.76,0,0,0,.13.13,1.46,1.46,0,0,0,.35.1.43.43,0,0,0,0-.17c0-.13,0-.14,0-.15s.05,0,.18.1l.16.11c-.22-.32-.22-.32-.26-.39s-.12-.27-.2-.39l-.07-.07h0c0,.07,0,.07,0,.07A2.34,2.34,0,0,1,114.62,39Zm1.62,3c0,.13-.1.21-.13.33a.1.1,0,0,1,0,.07,1.67,1.67,0,0,1,.14.28,4.52,4.52,0,0,1,.18.48l.48.57.12.17h0s.08-.07.14,0a3.35,3.35,0,0,1,.47.43,1.26,1.26,0,0,0-.18-.26,1.88,1.88,0,0,1-.29-.29l0,0c-.11-.16-.19-.34-.3-.5s-.21-.24-.29-.38a2.05,2.05,0,0,1-.19-.37h0c.08.05.26.28.23.16a.16.16,0,0,1-.05-.06c-.14-.18-.15-.24-.14-.26l0,0s0-.08,0-.13h0l.06,0h0s0,0,0,0l.21.09h0c-.17-.26-.18-.27-.19-.34l-.07-.09v0l0,.12a.29.29,0,0,1,0,.13v0C116.44,42.08,116.24,41.85,116.24,42Zm-4-6.27.12.17s0,0,0,0l-.2-.09h0l0,0,0,0h0v0h0c-.42-.29-.46-.26-.51-.23s0,.11.06.17v0h0c.13.14.27.25.4.39s.32.58.55.83a6.76,6.76,0,0,0,.58.72c.06,0,.1,0,.15,0h0l.21.11a.38.38,0,0,0,0-.24c-.06-.13-.05-.15,0-.17h0a4.3,4.3,0,0,1,1.27,1.33l-.06,0c0,.06.4.63.4.63h0v-.06l0,0v0s-.44-.72-.45-.78v0c.16.07.22.25.36.34s0,0,.08,0h0a.17.17,0,0,1,0-.07l.06,0a4.14,4.14,0,0,0-.23-.47l-.23-.33-.11-.18-.1-.14-.32-.38a6.62,6.62,0,0,0-.57-.62l0,0a2.37,2.37,0,0,1-.27-.28s0,0,0,.06h0l0,0h0a9.11,9.11,0,0,1-.8-.78s-.33-.38-.41-.38v0h0a.6.6,0,0,0,.06.11s0,0-.08-.06A1.27,1.27,0,0,0,112.19,35.73ZM117.86,45s0,0,.06.06c-.09-.14-.19-.27-.27-.42a.41.41,0,0,1,0-.19s-.28-.3-.35-.29,0,.18.07.25h0a.89.89,0,0,1,.24.36.81.81,0,0,0,.11.2h0c0-.07-.07-.14,0-.16s.16.17.23.29h0C117.84,45,117.85,45,117.86,45Zm-2.09-.67s0,0-.11-.1,0,0-.06-.06,0,.13-.07.11l-.07-.07a.31.31,0,0,0,.09.21s.08,0,.12.06a3.37,3.37,0,0,1,.35.29h0s0,0,.07,0,.12.16.2.23l.1.06h0c0-.07-.06-.13-.06-.21a1.72,1.72,0,0,1-.34-.7h0s0,0-.07,0h0c0,.1,0,.14-.11.1h0S115.8,44.33,115.77,44.32ZM109,34.54a7,7,0,0,0,.61.64c.26.27.5.56.77.82l.65.42,0,0h0c.16,0,.25.19.39.26l.08,0a.79.79,0,0,1,.2.17s.08,0,.12,0A.88.88,0,0,1,112,37s0,0,0,0,0,0,0-.06h.11c.14-.1.21.14.33.18-.06-.16-.22-.24-.29-.39a3.27,3.27,0,0,0-.19-.38l-.09-.11-.65-.67c-.08-.09-.19-.14-.27-.24s-.07-.17-.14-.25l-.75-.72c-.05,0-.05,0-.2,0a.58.58,0,0,1-.32-.06s0,.17-.34-.14c-.08-.07-.08-.07-.13-.07s-.06.15-.06.15.06.09.06.15S109,34.46,109,34.54Zm.65-1.17a.91.91,0,0,0,.12.25c.3.27.29.3.26.33.09.22.4.27.38.56h-.06s0,0,.4.4c.24.23.26.3.28.36s0,.05,0,.05a1.67,1.67,0,0,0,.16.12c.07.07.09.18.19.21h0c0-.07-.08-.1-.07-.17s.06,0,.1,0a2.21,2.21,0,0,1,.44.26h0a.13.13,0,0,1,0-.06l.06,0h0a2.18,2.18,0,0,0,.23.09l-.1-.13a4.37,4.37,0,0,0-.37-.48c-.32-.33-.32-.33-.32-.35h0l0-.07-.2-.19h0a8.14,8.14,0,0,1-.94-.85,1,1,0,0,0-.28-.22v0s0,0,0,0l-.16-.12h0s0,0-.12-.08h0Zm1.82,4.69s0,0,0,.08,0,.07,0,.09-.12-.06-.18,0,0,0,0,0,0,0-.21-.06v0h0a.5.5,0,0,0,.19.16c0-.06.07-.1.21.08,0,0,0,0,0-.06s0-.09.11-.1h.06c.09.06.14.15.23.21s.21.05.3.12,0,0,0,0,0,0,.12,0,.06,0,.07,0v0c0-.06,0-.09.06-.08s0-.21,0-.3a.88.88,0,0,1-.17-.31.19.19,0,0,0,0-.08,4.29,4.29,0,0,0-.33-.38h0a.69.69,0,0,1-.13,0l-.18-.1h0s0,.1,0,.15-.1,0-.12.08,0,0,0,.07,0,.11.15.31.18.2.15.23S111.59,38,111.49,38.06Zm5,9.14h0v0h0Zm.54.92s0,0,0-.06a1,1,0,0,1-.12-.27,2.92,2.92,0,0,0-.21-.28l-.14-.25h0c0,.06,0,.11-.15,0h0a.64.64,0,0,1-.27-.7.94.94,0,0,0,0-.38c-.1-.27-.37-.43-.48-.69s0-.38-.12-.56c0,.09.06.18,0,.27s0,0-.13-.1c-.2-.3-.2-.3-.22-.31l-.05,0a.52.52,0,0,0-.12.29c0,.06,0,.12,0,.19s.73,1.26.6,1.5a.61.61,0,0,0,.12.51l.15.25c.07.14.22.19.29.33a1,1,0,0,0,.28.37,1.32,1.32,0,0,1,.18.18s.6,1.24.61,1.25.1-.23-.1-.57-.11-.47-.08-.47a.69.69,0,0,1,0-.35C116.93,48.19,117,48.16,117,48.12Zm-1.83-6.67c-.22-.34-.16-.36-.13-.35l0,0L115,41a.17.17,0,0,0-.06-.06l-.29-.18h0s0,0,0,0,.1.2.1.21l.13.2ZM81,108.83h0a.73.73,0,0,1-.24-.07h0a.19.19,0,0,1-.11.14c-.07,0-.15.08,0,.16.39-.16.33,0,.33,0a.11.11,0,0,1-.07.06l-.15.08c0,.1.06.1.11.11s.46.11.2.28c0,.07,0,.07.2.07h0a1.06,1.06,0,0,1-.1-.28C81.12,109.23,81.09,109,81,108.83Zm-.36-.15h0l0-.1a.75.75,0,0,0-.32,0,1.35,1.35,0,0,1-.42,0l.25.22,0,0h.1a.61.61,0,0,1,0,.12c-.07.13-.07.14-.24.19.08.09.08.09.28.15C80.35,108.72,80.35,108.72,80.67,108.68Zm-.74-.14-.16-.12A.27.27,0,0,0,79.93,108.54Zm-.52-.58a.35.35,0,0,0-.11,0c-.59-.58-.36-.78-.24-.89a1.07,1.07,0,0,0,.11-.33.27.27,0,0,1,0-.48c-.08-.14-.09-.18,0-.31a2.12,2.12,0,0,1-.12-.2.44.44,0,0,0,.06-.1c-.1-.12-.12-.17,0-.29s-.05-.07-.28-.22v-.11l.15,0H79l0-.11-.23,0a3.43,3.43,0,0,1-.21-.64c-.3-.09-.26-.34-.2-.69a3,3,0,0,1-.35-1.7l.19-.11c-.1-.25-.26-.47-.34-.73A21.76,21.76,0,0,1,78,98.62l-.19-.12a1,1,0,0,0-.19-.54,2.64,2.64,0,0,0-.27-.46c-.12-.25,0-.83.16-.88a0,0,0,0,0,0,0,.6.6,0,0,0-.09-.28c-.36-.59.34-1.84.35-1.85s.11,0,.14,0l.1,0c-.29-.31-.29-.31-.15-.66-.16-.23-.16-.23-.17-.27a.33.33,0,0,1,.06-.38c-.1-.1-.26-.38.32-.62.1,0,.1,0,.33-.74l-.09-.07c-.39.09-.48.12-.77-1.24-.39-.23-.38-.25-.36-1.35a1,1,0,0,1-.42-.9c-.11-.09-.2-.2-.31-.3h0l0,.13s0,.08,0,.12c0,.33-.3.63-.16,1a1.59,1.59,0,0,1,.12.7c0,.59.22,3.83.22,3.84s-.07,2-.09,2h0a11.48,11.48,0,0,1,.58,3.77c0,.15,0,.15-.13.43.06.11.09.16,0,.23a4.21,4.21,0,0,1,0,.71l-.08.08h-.09c.5,1.55.5,1.55.47,1.57.11.77.11.77.41.9l.21-.12c.13.09.16.26.29.35a.43.43,0,0,1,0,.11l-.07.09c.1.35.1.35,0,.42.11.24.11.24.08.43a1.13,1.13,0,0,1,.12.18l-.06.09a5.5,5.5,0,0,1,.15.88l-.09.07c-.17-.06-.25-.27-.46-.28a1,1,0,0,1-.22.37c.11-.07.13-.08.27,0,.35.07.35.07.45.19a.44.44,0,0,1-.08.17c.12.15.2.33.33.47,0,.13,0,.13-.23.23,0,.22,0,.49.92,1.21a.69.69,0,0,1,.45.15,2.54,2.54,0,0,1-.23-.47S79.44,107.94,79.41,108Zm2.23,1.79h-.15l.09,0,.21,0H82A1.11,1.11,0,0,0,81.64,109.75ZM76.45,87.59l0,.14c.09.19.38.21.39.47a.8.8,0,0,0,.12.54,1.63,1.63,0,0,0,.21.21c.13.12.15.16.15.17s0,.12-.11.22c.09.17,0,.35,0,.52s.2.13.13.35a3.3,3.3,0,0,1,.43.78c.1.17,0,.4.14.55s.2.13.34-.16h0c.38-.55.48-.6.5-.6s.19.22.35.22c.59,0,.59,0,.63,0s0,0,.19.38c.1-.14,0-.38.2-.48A1.83,1.83,0,0,1,81,91a1.57,1.57,0,0,0,.15-.69,1.44,1.44,0,0,1,.36-1A4.77,4.77,0,0,1,83,89c.26,0,.41.23.62.33a.36.36,0,0,0,0-.13s0,0,.23-.81q0-.13-.15-.51c-.17-.05-.52-.15-.36-.89-.35-.17-.72.15-1.08,0-.08,0-.19-.1-.1-.55C82,86,82,86,82.14,85.88a.49.49,0,0,0,0-.12c-.13-.58-.13-.58-.12-.66a1,1,0,0,0-.58-.2c-.29,0-.35,0-.39,0s-.16-.3-.34-.34-.29,0-.42-.26h-.2L79.43,84a1.85,1.85,0,0,1-.59-.6,2.78,2.78,0,0,1-.2-.79v0a.3.3,0,0,1,0-.16c0-.1,0-.21.05-.31a.35.35,0,0,0-.06-.23h0a5.57,5.57,0,0,0-.69.16c-.14.06-.18.24-.33.3a1.29,1.29,0,0,0-.19,0s-.11.14-.14.19h0c-.08.11-.24,0-.32.1a1.11,1.11,0,0,1-.31.3l0,0c-.18,0-.28-.14-.44-.15,0,.06,0,.09.23.46a3.6,3.6,0,0,1,.34.63c0,.19-.16.32-.16.51s.17.51.13.79c0,.06,0,.06-.3.5.16.4.16.4.11.44a.31.31,0,0,0,.13.44c.09,0,.17.08.19.13.07.28-.09.45-.29.66S76.44,87.56,76.45,87.59Zm10.06,10.6s0,0-.08-.06a.34.34,0,0,1-.14-.15,1.86,1.86,0,0,0-.11-.19h0s-.12,0-.17-.08a.36.36,0,0,1-.12-.13.58.58,0,0,0-.2-.19c-.18-.08-.18-.08-.21-.11-.12-.19-.12-.19-.15-.21s-.34.26-.32,0,0-.12-.16-.31a.6.6,0,0,0-.26-.15h0c-.22.12-.22.12-.29.09s-.14.11-.15.13.09.15.09.18a0,0,0,0,0,0,0,1.31,1.31,0,0,1-.09.28c0,.08,0,.17,0,.25a.54.54,0,0,1-.05.11s0,0,.05.48c0,.22,0,.25-.15.34a1,1,0,0,0,0,.28,1.63,1.63,0,0,0,.11.23c.13,0,.14,0,.22.19h.1a.5.5,0,0,1,.21,0s.06,0,.15.1.07.07.23.13.38-.08.56,0,.08,0,.11,0a1,1,0,0,0,.71-.63c-.06,0-.08-.09,0-.21s0-.14,0-.22S86.48,98.3,86.51,98.19ZM84.2,99.56c-.45-.19-.41-.39-.3-.52s-.26-.57.09-.72A2.66,2.66,0,0,1,84.06,97c-.32-.43,1.55-2.14,1.82-2.31s.33-.25.33-.28a1,1,0,0,0-.14-.88.64.64,0,0,0-.18.06c-.12,1-.69,1.28-.89,1.16l-.09.07c-.08,0-.11.08-.3,0H84.5a4.38,4.38,0,0,1-1-.15s0-.08-.05-.12A5.6,5.6,0,0,0,84,93.37a3.93,3.93,0,0,0-.92-.51l-1-.64c.17.1.38.06.56.16s.33.25.51.35.53.25.79.4a.49.49,0,0,1,.16.17.33.33,0,0,1,0,.21.43.43,0,0,1,0,0c-.06.15-.24.21-.26.38s0,.31,0,.33-.16.18-.22.28a3.55,3.55,0,0,0,.88.13.3.3,0,0,1,.2,0l.1,0h0c.13-.17.15-.16.35,0,.08-.09.11-.21.21-.28s.2-.11.24-.21.3-1.29.3-1.3a3.1,3.1,0,0,0,0-.46c-.1-.07-.11-.07-.3,0s-.48.14-.48-.66c0-.53,0-.53-.63-.51H84.4c-.57,0-.58,0-.61-.13-.11-.27,0-.54,0-.81a4,4,0,0,1-.17-.59.2.2,0,0,1,.08-.14v0l0,0c-.3-.08-.51-.36-.85-.36a5.12,5.12,0,0,0-1.3.27l-.25.55a3.85,3.85,0,0,0,0,.48c0,.23-.12.45-.16.69h0a8.92,8.92,0,0,0,1,1l-.77-.53a6.27,6.27,0,0,0-.46-.54c-.05,0-.09-.06-.54,0-.14.18-.1.45-.29.6h0c-.11-.05-.11-.06-.23-.35a.32.32,0,0,0-.14-.16,5.29,5.29,0,0,1-.79-.17c-.08.23-.32.34-.42.56A.8.8,0,0,1,78,92.7c-.49.23.08.77,0,1.15,0,.05-.08.11-.09.17,0,.21.28.2.24.4s0,.06-.35.28c-.27,1.55-.27,1.55-.26,1.56.11.21.18.46-.07.52a1.7,1.7,0,0,0,.27,1.14c.19.34.19.34.18.47.62.44,0,1.08.2,1.59.14.35-.22.66-.1,1,.28.87.28.87.18.92a2.44,2.44,0,0,0,.26,1.55c.12.15.12.19,0,.31a.81.81,0,0,0,.07.32c.18.06.18.06.24.15a.24.24,0,0,0,0,.09c.16.24.16.24.16.44.5.12.35.29.22.38,0,0,.08.11.11.17a.7.7,0,0,1-.09.17l.09.15a.35.35,0,0,1,0,.13c.14.18.16.21.07.33a.67.67,0,0,1,.07.18c-.19.28.13.65-.17.9s.25.66.26.66.25-.09.32.17c.12.46.21.45.76.42a1,1,0,0,1,.47.08c-.31-.48-.49-.78.07-1,.56-1.16.56-1.16.53-1.25-1.55-.5-.56-1.1-.54-1.1.32-.12.32-.12.34-.16.15-.28,0-.68.34-.9-.2-.07-.2-.07-.26-.15.14-.23.14-.23.53,0l.06-.07a.13.13,0,0,0,0-.06.36.36,0,0,0,0-.1l-.08,0c-.39.18-.42.1-.61-.36-.39-.6.11-.51.12-.51.84.2.84.2,1,.07-.19-.8-.34-1.38.07-1.18s.44.23,1.26,0a1.34,1.34,0,0,0,1.06-1.06s0-.08,0-.11Zm-2.1,10.08a1.59,1.59,0,0,1-.45-.22,1.41,1.41,0,0,1-.28-.18,1.53,1.53,0,0,1-.19-.3.13.13,0,0,1,0,.06,3.06,3.06,0,0,0,.18.65h.25a1.09,1.09,0,0,1,.37.07h0a.37.37,0,0,1,.16,0h0a.2.2,0,0,0,.11,0l-.11,0Zm2.35-1.36h0s0,0-.13,0h0s0,.09,0,.12a1.14,1.14,0,0,1-.16.15s0,.06.09,0l.17-.1c.07,0,.16,0,.23-.09s0-.08,0-.09Zm-.38,0h0l-.09,0-.1,0-.06,0a.09.09,0,0,1,0,.07.08.08,0,0,1,0,.06s0,0-.15.09c0,0,0,0,.13,0a.24.24,0,0,1,.12-.06h0a.75.75,0,0,0,.16-.15ZM65.94,65.21c0-.06,0-.08,0-.12-.16.12-.24,0-.52-.17a.3.3,0,0,0-.12-.07h0c-.08.06-.14.08-.2,0l-.16-.08-.18-.09a1.79,1.79,0,0,0-.14.13c.16.12.11.21,0,.36a.25.25,0,0,0,0,.29c0,.08.06.09.18.15l.15.15,0,0c-.18-.23-.18-.24-.18-.3s0-.14.17-.12.49.23.39.55a1.62,1.62,0,0,1,.59.34.51.51,0,0,1,.1.36c.24-.07.29.16.31.28l.06-.07c-.08-.13-.14-.23,0-.32-.17-.11-.11-.47,0-.58h0c-.08-.11-.18-.21-.25-.32Zm4.39,1.84.09.15a.29.29,0,0,1,0,.09s0-.05,0-.08,0,0-.13-.16Zm-5.4-16.74h0l.08.1h0L65,50.33h0ZM62.74,60.65c.11-.21.34-.3.49-.47s.07-.07.12-.6a1.17,1.17,0,0,1,.37-.71v0c0-.09,0-.1-.2-.11h0s0,0-.13.16c-.2.4-.35.3-.41.26h0a10.65,10.65,0,0,1-.26,1.49ZM62,62.12c.08-.07.07-.19.17-.25s.24-.13.24-.16,0-.2,0-.28.25-.12.36-.22L63,61l0,0-.26-.12c-.09,0-.26,0-.26-.11a.92.92,0,0,1,0-.2c.16-.71.23-1.21.24-1.27a1.1,1.1,0,0,0-.27,0h-.79c0,.41-.06.47-.26.47h0c.32.27.33.29.33.46a.28.28,0,0,1,0,.49c-.27.06-.54-.06-.81,0,0,.08,0,.17-.06.24a2.23,2.23,0,0,1-.34.32h0c.08.15.08.15-.09.6.49.42.49.42.73.41h0a.82.82,0,0,1,.48.12c0-.08.06-.1.23-.2Zm18.12,46.69h0c-.06,0-.12,0-.17,0h0a.21.21,0,0,1-.11.07s0,0-.09,0l0,.07a.66.66,0,0,0,.15,0l.09,0,0,0a.4.4,0,0,1,.07-.07ZM71.49,54.23a1,1,0,0,0,0-.25,3.21,3.21,0,0,0-.07-.43v0a3,3,0,0,1-.18.3l.17.18c0,.11,0,.24.07.36A.62.62,0,0,0,71.49,54.23Zm-.81,4.53-.16.06c.12,0,.14.08.16.15a.13.13,0,0,0,0,.09l.3.11h0c.12,0,.2-.13.32-.13h0c.23.05.23.05.26,0h0A1.63,1.63,0,0,0,70.68,58.76Zm-3,8.79s0,.06.09.34h0c.17,0,.27-.19.44-.19-.06-.23-.45-.36-.27-.63s.25-.1.36-.18.15-.13.15-.17a.46.46,0,0,1,.14-.28.75.75,0,0,1,.47-.06s.41.22.45.47h0c.28-.11.28.15.24.23s-.16.15-.2.25l.16.36.06.09h0c.06-.1,0-.23.09-.31h0c.06,0,.08,0,.14.11h0c.14,0,0-.25.17-.28h0c-.2-.4-.2-.4-.15-.51-.11-.12-.18-.27-.29-.38a1,1,0,0,0-.28-.18,1.14,1.14,0,0,0-.37,0c-.12,0-.19-.15-.32-.15s0,0-.22.16a1.07,1.07,0,0,1-.29.18,7.16,7.16,0,0,1-.83.33h-.07a1.75,1.75,0,0,1-.24-.11c-.11-.06-.24,0-.35,0s-.11-.16-.14-.27,0-.13-.19-.24h0s0,.05-.06.22v0c.1.07.31.21,0,.34h0c.07.1.09.17,0,.27h0a2,2,0,0,1,.72.22c.11.08,0,.34.17.33S67.65,67.49,67.69,67.55Zm28.79,9.9c-.93-1.09-1.15-1-1.73-.91-.25,0-.26,0-.45-.11-.38.23-.57-.3-.9-.28s-.55.5-.94.58a1.31,1.31,0,0,1,0-1c-.06-.19-.06-.19-.25-.35h0c-.69,0-1-.87-1.72-.68-.4.11-1.09,1.4-1.09,1.42l-.09,0h0c-.2-.22-.08-.83-.08-.84a1,1,0,0,0,.7-1c-.24-.07-.48.08-.72,0-1-.25-1,1.42-2,1.11l0-.12C89,73.07,89,73.07,89.07,72.87a.19.19,0,0,0,0-.14,4.48,4.48,0,0,1-.6-1c-.12-.37-.09-.78-.24-1.15-.77.32-.16,1.68-1.13,1.73a1,1,0,0,1-.18-.06,1.11,1.11,0,0,1-.26-.07c-.52.41-1-.06-1.46-.09a2.16,2.16,0,0,1,0,.44.52.52,0,0,1-.36,0h-.15a.61.61,0,0,1-.41-.06c-.27.24-.27.24-.43.23v0a.81.81,0,0,1-1.44-.24s-.38-1.21.14-1.68c0-.26,0-.26-.35-.57,0-.15.06-.29.09-.43l-.13,0c-.3.27-.5.65-.89.82s-.45.15-.54,0h0s0,0-.22.48l-.14,0c-.31-.23-.72-.24-1-.44.27.43.29,1,.77,1.31.08.5-.47.49-.49.49,0,.55-1.06,1-1.07,1a2.68,2.68,0,0,0-.47-.15l.32-.22h0c.1,0,.11,0,.14.14a1.24,1.24,0,0,1,.17-.27.73.73,0,0,1,.2-.07H79l.42-.27c0-.28,0-.28.49-.46,0,0,0,0,0,0-.42-.13-.42-.13-.45-.21a1.53,1.53,0,0,1-.1-.41c-.06-.2,0-.42-.12-.59s-.32-.4-.18-.49,1.1.29,1.11.29a1.88,1.88,0,0,1,.21.18h0c0-.39.39-.5.51-.38s0,0,0,0a1.5,1.5,0,0,0,.33-.12c.61-.26.66-.57.66-.61-.57-.65-.57-.65-.57-.71v-.06c0-.11.16-.15.2-.26s-.08-.28,0-.41.21-.11.38-.13l.14-.07c-.12-.07-.12-.07-.14-.14-.08-.24-.1-.33,0-.46s.44-.3.59-.53-.34,0-.49-.11h0a1.8,1.8,0,0,1-.39.08h0c-.33,0-.17-.23-.17-.24.3-.3.4-.4.43-.63-.19-.19-.51-.13-.7-.34-.1.13-.14.19-.23.12l0,0-.38-.64c0-.12.14-.13.31-.14a3,3,0,0,0-.51.06c-.1,0-.2,0-.3,0-.11.17-.11.17-.12.17l-.71.32c-.49,0-.57-.07-1-.46h0a5.14,5.14,0,0,1-1.22.12c-.25-.09-.34-.17-.29-.44s-.44-.39-.61-.41h0a2.42,2.42,0,0,0-1.4.58,1.39,1.39,0,0,0,.16.54c.13.26.16.37,0,.8l0,0c-.31.22-.44.14-.47.11l-.27-.78c0-.23.28-.33.32-.56s0-.24-.14-.62c0,.18-.06.21-.26.24-.31.4-.31.93-.58,1.35.13,0,.23,0,.3.2s.38.78.27,1a.28.28,0,0,1-.1.12,1,1,0,0,0,0,.29s0,0,.3.35c.1,0,.17-.09.27-.1a1.57,1.57,0,0,0,.29.08c.13,0,.23-.14.38-.06.52.29.52.29.61.5s.11.24.26.35h0c0-.07.11-.19.37-.07h0c.26,0,.47-.26.74-.14a.36.36,0,0,1,.16.54l-.06.06c0,.26-.14.49-.15.76a1.39,1.39,0,0,0,.18.87,1,1,0,0,1,.17.36c0,.09,0,.09-.32.4A1.67,1.67,0,0,1,77.54,73c.19.07.28.28.46.37l-.71-.21a5.06,5.06,0,0,1-.17-.67,1.65,1.65,0,0,1-.89.23h-.62l-.13,0V73c.62.41.76.51.4.64-.07,0-.18,0-.24-.08l0,0a1.59,1.59,0,0,0-.27.12c-.06.58.56,1,.44,1.57s-.22,1.86-.22,1.87c0,.79-.31.67-.53.43h-.15c-.21.35-.63.24-.91.42a2.18,2.18,0,0,1-.48.34A2.42,2.42,0,0,1,73,79.64c.07.35.07.35-.1.45l.57,1.18a12.39,12.39,0,0,1-.76-1.13c-.06-.13.1-.18.15-.27-.11-.32-.11-.32.38-.63,0-.12-.11-.21-.1-.34l.24-.77.69-.47c.2-.08.43-.07.62-.16s.06-.15.14-.17a.6.6,0,0,1,.34,0l.06,0,0,0h0a.7.7,0,0,0-.1-.19l0,0c-.32.12-.34-.17-.26-.35a.7.7,0,0,1,.08-.14,2.83,2.83,0,0,0,.27-.48c-.17-.12-.36-.21-.52-.34-.29.14-.29.14-.51,0-.14.07-.21.27-.4.26h0c-.71-.09-.71-.09-.66-.51-.33-.13-.42-.54-.76-.66a.23.23,0,0,1-.14-.22c0-.36-.52-.59-.52-.59h-.11s0,0,0,0c.28.45-.1,1.11-.23,1.3a1.71,1.71,0,0,1-1,.85,1.25,1.25,0,0,0-.46.25c-.47.38-.26,1.06-.64,1.49a.2.2,0,0,1-.21.06c-.12,0-.12,0-.35-.43l-.1,0h0c-.08,0-.09,0-.21-.13-.18.16-.18.16-.22.17h0c-.1,0-.1,0-.11-.32,0-.05-.18-.32.17-.34a1,1,0,0,0-.06-.21c-.11.1-.69.62-.5.9s.23.21.11.38c.49.58.11.64.1.64h0c.24.31.69.34.92.68l.74,1.1c.42.62.64,1.34,1,2,.07.11.05.26.13.37.31.2.32.21.37.47l.27.39.51.78c.09.15,0,.25,0,.39.11.28.16.33.76.93a6.74,6.74,0,0,0,1.52.92,2.89,2.89,0,0,1,.84.49c.16.11.16.11.25.13s.21.2.24.27,0,.08.25.24l.41.31s.26,0,.17-.27-.06-.14.13-.31c-.17-.4.31-.54.34-.86-.31-.24-.31-.24-.33-.3a.81.81,0,0,1-.06-.32c0-.08.1-.11.11-.19-.15-.18-.18-.2-.18-.28,0-.24.29-.31.32-.54l0-.12c-.12-.24-.13-.26-.09-.81,0-.13.11-.2.16-.31-.16-.41-.44-.74-.63-1.13l-.45.12h0c-.11,0-.15,0-.27-.17a.3.3,0,0,1-.07-.2.57.57,0,0,0,0-.14v0a3.13,3.13,0,0,1,0-.65c-.16.07-.23.25-.39.32a1.6,1.6,0,0,1-.43,0c-.3,0-.26-.47-.58-.45-.51,0-.44-.11-.26-.4.09.2.09.2.08.21h.19c.16,0,.16,0,.51.44.41,0,.61-.47,1-.4.06.21.06.22,0,1.05h0a.1.1,0,0,0,0,.09c.11.11.11.11.22,0a.33.33,0,0,1,.21-.08l.23,0c.14,0,.27,0,.41,0a.22.22,0,0,1,.12.08.1.1,0,0,0,0,.05.69.69,0,0,0,.25-.24h0c.14-.14.15-.15.25-.14,1.64-.92,1.89-1.07,1.76,0l0,.1a2.92,2.92,0,0,0,.16.71c.51.8,1.63.62,2.17,1.37,1.16.16,1.16.22,1.16,1.08,0,.17,0,.18-.1.26a1.43,1.43,0,0,1,.15.72c.39.17.79-.1,1.18.06.09.24,0,.48,0,.72s.36.28.45.5a1.52,1.52,0,0,1,.06.2,4.54,4.54,0,0,1-.25,1c0,.16.1.34,0,.5.11.42.05.86.12,1.29a4,4,0,0,0,.5,0h.12c.72,0,.72,0,.83,1.13,0,.08,0,.08,0,.08l.22-.05.11,0h.07c.29.07.4.1.11,1.13a.83.83,0,0,1,.43,1.13c0,.09-.07.15-.41.37a3.63,3.63,0,0,0-1.32,1.41c-.19.16-.19.16-.25.28a.59.59,0,0,1,.77.5c.42-.36,1.51,1.09,1.51,1.11s0,.17-.22.33a1.11,1.11,0,0,1,0,.19c.13,0,.31-.12.41-.5.5-1.83,1.09-1.61,1.12-1.6a.52.52,0,0,0,0,.11,9.42,9.42,0,0,0,1-1.61c.15-.4,0-.82,0-1.24.12-.89,1.63-1.63,1.75-1.64l.2.09c0-.26.52-.64.52-.65.2-.1.37,0,.56,0a2.61,2.61,0,0,1,.79-.06H93v0c0-.22,0-.22.59-.58a1.83,1.83,0,0,1,0-.33c.29-1,1.15-1.74,1.4-2.77s0-2.13.4-3.16.3-.92.48-.62c0,0,0,.1,0,.14.36-.52.46-1.2,1-1.61l0,0a3.78,3.78,0,0,0,1.37-2.42,5,5,0,0,0-.22-1.86C97,78.06,97,78.06,96.48,77.45ZM77.71,104.07h0a.31.31,0,0,1-.1,0,.1.1,0,0,1,0-.12s0,0,.09-.14a1.4,1.4,0,0,1-.09-.17h0l-.09,0a3.43,3.43,0,0,0,.06.34,1.94,1.94,0,0,1,0,.24v0a.59.59,0,0,0,.2,0A.73.73,0,0,0,77.71,104.07ZM64.56,63.77h0c.23,0,.68.56.75.89.18,0,.29.21.45.29l.08-.06c-.12-.25-.12-.25-.1-.38s0-.05.17-.25-.09-.16-.07-.26l0-.08a.44.44,0,0,0,.05-.14c0-.08-.05-.14,0-.22s.13-.18.16-.29.06-.45.11-.67.27-.35.32-.57l0-.08a.37.37,0,0,1,0-.38h0l-.1,0-.61.26s0,0-.3-.15c-.13.13-.19.31-.32.44a1.61,1.61,0,0,1-.44.32h0c-.07,0-.1,0-.18-.12-.2.25-.2.25-.39.21s0,.21,0,.31S64,63,63.94,63l0,0c0,.11-.09.31-.45.23a2.38,2.38,0,0,1,.61.79,2.24,2.24,0,0,0,.33.41C64.36,64.26,64.25,63.8,64.56,63.77Zm-1-.91c.12.17.12.17.14.17s.06-.24.21-.25h0c0-.31,0-.43.28-.38,0,0,0,0,.07,0s.14-.18.19-.2.12,0,.23.13a1.46,1.46,0,0,0,.41-.38c.18-.32.29-.36.34-.38h0c.12,0,.18.12.28.15a5,5,0,0,1,.59-.25l-.11,0c-.35-.14-.34-.19-.28-.44a1.3,1.3,0,0,0-.41-.14c-.11,0-.2.08-.31.06s-.17-.12-.28-.09l-.45.17h-.44c-.12,0-.23-.07-.35-.09l-.14,0a.4.4,0,0,1-.21.06,2.94,2.94,0,0,0-.52.46h0a1.31,1.31,0,0,0-.24.12c0,.24,0,.24,0,.34a.92.92,0,0,1,.29.26c.1.11.1.11.13.11s.19-.13.29,0,.23,0,.27.14-.08.19-.11.29C63.53,62.8,63.53,62.8,63.56,62.86Zm-.48-.47,0,0c-.15.14-.17.11-.41-.16s-.32-.23-.36-.22,0,0-.06.06-.08.16-.13.19-.16.08-.23.14l0,.06a.37.37,0,0,0,.24.11c.19,0,.21,0,.27.07s.23.17.31.17h0c.14,0,.27.07.41.07h0c.09-.14.09-.14.09-.17a.56.56,0,0,1,.08-.21v0C63.12,62.46,63.12,62.46,63.08,62.39ZM108,41.54s.07,0,.16,0h0c0-.14.22-.12.33,0s.21.14.25.27,0,.19,0,.29a.13.13,0,0,1,0,.07.94.94,0,0,1,.17.31v0c0,.09.06.17,0,.22h0a.45.45,0,0,1,.12.28c0,.08,0,.12-.07.14h0s0,.06.07.1c.24.31.24.31.24.4v.08c0,.09,0,.09,0,.11s.22.19.23.35-.05.19,0,.29a.7.7,0,0,0,.1.16c.2,0,.2,0,.69.62.11.13.11.13.21.18h0c0-.07,0-.27.12-.29h.08c.09-.18.09-.18.28-.16H111c.18,0,.18,0,.26,0l0,0c0-.08,0-.08,0-.12s0,0,.14.09l0,0c0-.18-.2-.52,0-.55h.13c0-.15-.09-.27-.12-.41s0-.08.11-.31a1.23,1.23,0,0,1-.46-1.31c0-.1-.13-.15-.1-.26s.15-.15.22-.25c.19-.27.17-.3,0-.54l0,0,0,0s0,.08-.09.1h0l-.11-.05h0c-.06,0-.08,0-.18-.07a1.11,1.11,0,0,0-.35-.2c0,.07,0,.07-.07.08h0c-.24.06-.37-.16-.57-.21a.34.34,0,0,1-.19-.13.26.26,0,0,0-.1-.07c-.12-.06-.26,0-.38-.1l-.09,0-.18-.09h0c-.26.09-.26.09-.42,0l-.33-.1a1.5,1.5,0,0,1-.41,0c-.11,0-.19-.11-.3-.12a.09.09,0,0,0-.07.1c.05.13.05.13-.13.13a.35.35,0,0,0,0,.17c0,.09.15.1.19.19s.18.23.2.38C107.78,41.29,107.9,41.41,108,41.54Zm4.29,25.94c0-.13,0-.16.1-.23v0l-.06,0h0c-.14,0-.08-.22,0-.38s.07-.25-.18-.76c-.13-.27-.13-.27-.32-.27s-.33,0-.43.38-.08.3-.24.38v.16a3.25,3.25,0,0,0,0,.37c.14.06.2.09.18.29s0,.18.19.43c0,0,0,0,.2.13s.07,0,.21.18.31-.47.32-.47A1.65,1.65,0,0,0,112.3,67.48Zm1,2.62a2.57,2.57,0,0,0,.38.29c0-.26.09-.51.1-.77a1.61,1.61,0,0,0,0-.29l-.12-.08s0,0,0,0,0-.11,0-.26,0,0,0,0-.27-.1-.29-.19a.38.38,0,0,1,.07-.25c.13-.21,0-.69,0-.69l0,0c-.1.09-.06.33-.25.31s-.18-.45-.18-.46c0-.18,0-.58-.24-.58,0,0,0,0-.07,0h0a1.63,1.63,0,0,0,0,.18c0,.08-.11.12-.14.19s0,.22-.08.32-.4.32-.29.62c.05.15.19.23.28.34s.2.16.27.27a4.89,4.89,0,0,0,.36.63Zm9.88,12.81v0l0,.14S123.21,83,123.23,82.91ZM109.62,63.6s.07,0,.17-.1.19-.14,1.1-.1c.31,0,.54.4.9.21v0c0-.57-.13-.63-.25-.69a.19.19,0,0,1-.12-.11c0-.15.07-.29,0-.44a.83.83,0,0,1-.14-.3.47.47,0,0,1,0-.17,2.59,2.59,0,0,1-.71-1.1h0c-.18,0-.18,0-.34-.25s-.1-.17-.33-.17-.29.14-.45.15a1.46,1.46,0,0,1-.2,0,4.51,4.51,0,0,0-.07.53,1.11,1.11,0,0,1-.16.5l-.14.31,0,0a3.53,3.53,0,0,1,.32.78h.43c.29-.23.29-.23.67.09.21-.09.21-.09.24-.07a.32.32,0,0,1,.14.35.4.4,0,0,1-.31.2c-.18,0-.23-.22-.4-.25s-.1.12-.2.11h0l0,0c0,.16-.11.15-.27.14s-.15,0-.25.06a.88.88,0,0,0,0,.45C109.59,63.6,109.59,63.6,109.62,63.6Zm.77.75c.08-.11.1-.13.14-.14h0l.07,0c.08,0,.08,0,.07,0s-.13-.17-.13-.29,0-.13.15-.2a.47.47,0,0,0,0-.12h-.36c-.33,0-.33,0-.42.07s-.21.14-.3.13l-.19.09c.17.18.17.18.36.15s.26,0,.21.35a.48.48,0,0,0,.14.3c.09-.29.09-.29.28-.33Zm.85,1.86c.09-.31.13-.44.18-.48a1,1,0,0,1,.6-.06,1.49,1.49,0,0,1,.4,1.33c.21-.13.39-.24.5,0a2.52,2.52,0,0,1,.12.65.42.42,0,0,0,0,.26h0s0,0,.1-.16.12-.22.23-.09l0,0h0c.11-.19.11-.19,0-.58,0,0-.1-.33.23-.11a3.9,3.9,0,0,0-.13-.73c-.15-.44-.15-.44,0-.66,0-.09-.14-.12-.17-.22a1.43,1.43,0,0,1,0-.39h0c-.12,0-.16,0-.17-.06s.08-.3,0-.45S113,64,113,63.91s0-.09,0-.13-.1.27-.25.32-.13,0-.26-.13c-.06.08-.08.21-.19.26h0c-.07,0-.09-.08-.14-.23h0c-.19.24-.27,0-.32-.19l-.29,0h0c-.24,0-.39-.26-.64-.26v0c0,.2,0,.24-.12.3s.16.25.11.41-.12.14-.25.08h0s0,0-.08.1-.13,0-.18.06a1.37,1.37,0,0,1-.07.21l0,0c.11.18.15.39.25.57s.23.24.32.39l0,.06a3.66,3.66,0,0,1,.24.55C111.2,66.36,111.2,66.36,111.24,66.21ZM109.61,63c0-.15,0-.15.06-.16s0,0,.18,0,.1-.12.15-.13h0a1,1,0,0,1,.24.16c.19.13.2.14.33,0h0l0-.07c-.07,0-.12.07-.19.09h0s-.07,0-.2-.16a.24.24,0,0,0-.22-.1s0,0-.1.07-.11.1-.4.1h-.12s0,0-.06,0a1.7,1.7,0,0,1,0,.22C109.36,63,109.49,63,109.61,63ZM125,62Zm0,0ZM97.43,28.64c-.05,0,0,.1-.07.13s-.22,0-.33,0-.19.12-.19.17,0,.14-.1.15-.19-.12-.26-.21l-.08-.08a1.8,1.8,0,0,0-.36-.13A.5.5,0,0,0,96,29h0l.18,0c.36-.1.36.22.35.22s0,0-.17.05c.07,0,.14,0,.2,0l.2.12c.21.16.19.19.13.26s0,0,.14,0c.31,0,.55.25.86.15a1.88,1.88,0,0,0,.47-.34.29.29,0,0,0,.08-.26A3.29,3.29,0,0,0,97.43,28.64ZM125,62.22h0s0,0,0-.06v.09h0c0-.1,0-.2,0-.3h0c0,.41,0,.46.06.53s0-.14,0-.21v.1s0,0,0,0c0,.32.07.65.1,1v0c0,.25,0,1,0,1,.06.83.06.83.06.91a.08.08,0,0,1,0,0c0,.06,0,.31,0,.57,0-.24,0-.48,0-.71h0c-.09-1.53-.09-1.53-.09-1.58h0a.25.25,0,0,0,0-.08v-.06c0-.48-.1-.92-.15-1.33a.61.61,0,0,0,.05.18c0-.05,0-.1,0-.14h0a1.4,1.4,0,0,1,0,.21c0-.17,0-.35-.06-.52h0s0,.05.06.32l0-.14a0,0,0,0,1,0,0v0h0V62l0-.22h0c0-.21-.05-.35-.06-.4h0s0,0,0,.06c-.12-.68-.22-1.37-.36-2v0c0,.13,0,.26,0,.39,0-.22-.06-.4-.09-.56v0a21.41,21.41,0,0,0-1-3.81c0,.17.07.35.11.52v0c0,.14,0,.27.07.4a1,1,0,0,1-.1-.18l-.14,0h0l0-.11,0,.12h-.73l.35,1.46,0,.1h0l-.14,0,.06.26.58,3.07,0,.1h0l-.05,0-.08,0a17.11,17.11,0,0,0,.2,2.65c-.09-.51-.19-1-.2-1s-.1-1.9.06-1.85h0L122.9,58c-.67-.93-1.59-2.16-2.34-3l-.12.3c.25.77.43,1.32.56,1.75-.08-.16-.18-.32-.25-.49-.14-.38-.23-.78-.35-1.16l-.1.23v0l0-.05a1.28,1.28,0,0,0-.75-.69.78.78,0,0,0,0,.14c-.38,1-.81,2-1.14,3h0l-.47.22c.39,2.24.39,2.24.18,2.95,0,0,0,.09-.07.1l-.07,0c-.2.06-.41,0-.61.07s-.07,0-.11.08-.07.19-.3.16a.7.7,0,0,0,0,.25l.66,1.46,0,0c.09,0,.24-.1.21.35a.7.7,0,0,1,.2-.12h0c.16.07.14.28.28.37-.11-1.22.29-1.88.85-1.42.19.14.2.37.3.56.1-.08.13-.24.29-.26h0c.07,0,.09,0,.3.22l.25.21c.13-.12,0-.37.26-.43s.3-.09.58.18a1.85,1.85,0,0,0,.26-.5c0-.37,0-.73,0-1.09,0-.51.18-1,.18-1.53l-.36-2.43a15.75,15.75,0,0,1,.43,2.45c.12.87-.22,1.72-.15,2.59a1.78,1.78,0,0,0,.18.52c.37.14.66,2.6.63,2.74s-.1.06-.27,0l-.06,0c-.21.26.08.78.08.79.13.16.13.16.33,1.15.1,0,.1-.17.2-.21h0a.43.43,0,0,1,0,.12v0c.49-.64.49-.64.45-.84s-.06-.36.25-.39a3.36,3.36,0,0,0,.26-1.07c0-.44.14-.52.14-.52s0-.08,0-.17c0,.25.07.48.1.7,0-.1-.05-.19-.06-.29l-.06,0c-.1.16-.1.24-.09.29a2.43,2.43,0,0,1-.31,1.3h0a.3.3,0,0,0-.19.1,1.18,1.18,0,0,1-.06.72s0,0,0,0-.12,0-.17.07-.12.21-.21.3h0a.21.21,0,0,1,0-.13c-.13.2-.14.22-.2.25l0-.06c0,.22-.24,1.23-.24,1.23.11.41,0,.84.06,1.25s.21.83.25,1.26a1.68,1.68,0,0,1,0,.33,6.07,6.07,0,0,1,.12-.84c0-.11.16-.11.24-.17s0,0,.08.11l0,.07c.1,0,.1,0,.11-.3a2.44,2.44,0,0,1,.25-1s.06,0,.16.34a.78.78,0,0,0,.08.2c.12.06.19.18.3.25h0a3.21,3.21,0,0,1,.11-.52h0l0,.05s0,0,0,0,.11-.24.18-.35l0,.08s0,0,0,0h0a.15.15,0,0,0,0-.06l0,0a1,1,0,0,1,0-.23h0a.19.19,0,0,1,0,.07l0,.05h.07s0,.09,0,.12,0,0,.06-.06v-.14c0,.24.07.49.11.76,0-.05,0-.12.08-.16l0,.08,0-.09a2.72,2.72,0,0,1,.1.79l0-.07a.56.56,0,0,0,0,.08,1.63,1.63,0,0,1,.09-.19.29.29,0,0,1,0,.09,3.71,3.71,0,0,0,.09-.7h0l.06,0c0-.33,0-1.7,0-1.71,0-.21,0-.4-.07-.56a4.43,4.43,0,0,1,.09.72c0,1.36,0,1.36,0,1.51v.2s0,.07,0,.83c0-.1,0-.13,0-.31,0-.82,0-1.61,0-2.4A48.39,48.39,0,0,0,125,62.22Zm.32,9.22v0c0-.1,0-.2,0-.29h0a2.45,2.45,0,0,0,0,.27Zm0-.13h0v0c0-.65,0-.65,0-.7v-.15l-.07,0c0,.22,0,.43,0,.65a2,2,0,0,0,0-.25s0,.06,0,.08a2.23,2.23,0,0,1,0,.26s0,0,0-.12c0,.07,0,.16-.07.23s0,0,0-.13,0,0,0,.07a1.67,1.67,0,0,1,0,.36h0l0,.88c-.07.52-.21,1-.29,1.53-.18,1.19-.17,1.2-.14,1.24s0-.23.08-.31h0l0,0h.08a10.81,10.81,0,0,1,.27-1.17s0,0,0,.2c.08-.52.12-.81.15-1.07,0,.22,0,.45-.07.67-.12.73-.18,1.47-.24,2.21,0-.15,0-.31,0-.53,0,.26-.21,1.11-.21,1.11a.36.36,0,0,1,0-.12l0,0a.21.21,0,0,1,0,.12,8.6,8.6,0,0,1,.17-1.24l-.07,0a.08.08,0,0,0,0,0s0,.15-.05.34c0-.09,0-.19,0-.29h0c0,.2-.06.24-.08.26s0,0,0-.06a1.28,1.28,0,0,0-.08.3v0a2.14,2.14,0,0,1-.06.34,1.24,1.24,0,0,1-.06.19l0,0h0s0,0,0,.12v.05a.17.17,0,0,0,.05-.13,1,1,0,0,1,.06-.25s0,0,.05,0v0h0c0,.23-.06.45-.06.56,0,.57-.34,1.06-.4,1.61l-.35,2a6.57,6.57,0,0,0-.21,1.63l0,0a4.83,4.83,0,0,1-.22.85c-.07.24-.06.25-.19.71l0,0c0-.11,0-.12,0-.13a.54.54,0,0,1,0,.22.67.67,0,0,1,.06-.12s0,.07,0,.1h0c0-.1.07-.22.12-.32v0a.08.08,0,0,0,0,0l.16-.49s0,0,0-.05h0a2.17,2.17,0,0,1,.07-.24h0c.11-.4.2-.7.24-.85a42.81,42.81,0,0,0,1-4.24c0-.35.08-.61.1-.81,0,.22,0,.43-.07.65h0l-.13.76h0c0-.26.11-.52.19-1,0-.18,0-.32.08-.47.26-1.64.45-3.31.55-5Zm-2.21,12-.1.28v-.06a.26.26,0,0,1,0,.09h0a.86.86,0,0,0,0-.19.42.42,0,0,0,0,.1h0v0l-.32.92c-.17.48-.29.86-.4,1.16a.79.79,0,0,0,0-.13v0s0,0,.13-.41h0s.62-1.9.78-2.42l0-.13c0-.17.08-.36.13-.53v0s0,0,0,0a.43.43,0,0,1,0,0c-.05.21-.09.42-.15.63h0c-.33,1-.69,2-1,2.94l.08-.1a6.47,6.47,0,0,1-.37,1c-.16.37-.39,1-.39,1s0-.12.08-.21c.21-.52.23-.53.24-.53h0l.19-.48a5.18,5.18,0,0,1-.25.64v0h0a5.33,5.33,0,0,1-.32.74c.19-.7.54-1.34.77-2h0l-.08.13h0c0-.14.08-.26.1-.39a4.33,4.33,0,0,0-.67,1.26l0,0a5.56,5.56,0,0,1-.73,2l-.18.36.48-1a3.53,3.53,0,0,0,.35-1.16h-.08l0-.1a1.36,1.36,0,0,1,.07-.18h0a0,0,0,0,0,0,0,1.18,1.18,0,0,0-.24.41,8.32,8.32,0,0,1-.83,1.34s0-.09-.08-.12h0c-.3.54-.28,1.19-.55,1.74l0,0s0,0,0,.06c-.08.23-.21.43-.3.66s0,.29-.1.43h0a.44.44,0,0,1,0,.14l0,0h0l0,0,.08-.11c-.07.12-.13.24-.19.37s-.22.4-.34.6c.11-.2.22-.43.36-.69,0,0,0,0,0-.17a7,7,0,0,0-1,1.36s-.74,1.16-1,1.16a.37.37,0,0,1,0-.19.33.33,0,0,0,0-.14c-.05,0-.05,0-.17.21,0,0-.6.89-.84.84,0-.06,0-.07.19-.39a3.21,3.21,0,0,0,.49-.93l-1.39,2.27-.05.08h0c-.16.08-.18.3-.37.34s-.2-.13-.18-.21.15-.23.17-.37c-.09,0-.29.31-.29.32l-.88,1.73c-.2.47-.66.79-.86,1.26-.07.14-.16.25-.23.38a2.23,2.23,0,0,0-.16.4h.06a1,1,0,0,1,.32-.24l0,0c.19,0,.23-.21.4-.24a.08.08,0,0,0,0,0l.11,0,0,0a.34.34,0,0,1,0,.1h0l.17-.17,0,0c.14-.15.14-.15.18-.17l0,0s.11,0,.64-.58c.17-.17.33-.34.81-.88a25.44,25.44,0,0,0,2-2.6,1,1,0,0,1,.08-.11l0-.09h0c-.19.29-.19.29-.24.31a2.74,2.74,0,0,1,.52-.92,3,3,0,0,1,.19-.26,1.09,1.09,0,0,0-.08.15,1.77,1.77,0,0,0-.16.22c-.38.53-.37.65-.37.66h0l.08-.13.14-.19s0-.07.06-.1l.06-.1c0,.09-.09.18-.13.28l.21-.33c.46-1,1.24-1.76,1.71-2.73.71-1.63,1.67-3.14,2.33-4.79.34-.87.67-1.75,1-2.64q.17-.46.3-.93l-.1.31ZM103,29.22l.06.07a.81.81,0,0,1,.2.16h0l-.06,0c.06.16.2.27.27.43,0,0,0,0-.15-.05h0c0,.1.24.18.15.31s.05.32.05.32a5.78,5.78,0,0,0,.84.83c.19.15.19.18.2.22l.23.21a.28.28,0,0,1,0-.09c.08,0,.28.18.26.27s.57.36.68.39h0c.12-.06,0-.27,0-.3s-.06-.1-.06-.13l.06,0c-.07-.13-.22-.2-.28-.33s.07,0,.2.13a0,0,0,0,1,0,0,1.24,1.24,0,0,0,.29.17c-.08-.16-.27-.22-.35-.39s-.23-.28-.28-.32l-1.5-1.28c-.18-.2-.18-.2-.2-.27l0,0h.08a4.94,4.94,0,0,1-1-.85s0,0,0,0h0c0-.08-.13-.12-.19-.19l-.08-.11,0,0A1.25,1.25,0,0,1,102,28h.09c-.06-.1-.17-.13-.24-.21s0,0,.22,0h0c-.07-.11-.21-.14-.3-.23h0l-.07-.07h0l.17.08a3,3,0,0,0,.47.15l-.06,0h0a3,3,0,0,1-.53-.44,1.45,1.45,0,0,1,.69.35,4.81,4.81,0,0,0-.55-.37s0,0,0-.07a1.11,1.11,0,0,0-.3-.12l.16.13a1.43,1.43,0,0,1-.31-.19l-.06,0a2.78,2.78,0,0,0,.27.21c-.05,0-.05,0-.23-.13.09.11.23.16.32.28a2.5,2.5,0,0,1-.49-.34s0,0,0,0l.08.09h0c0,.07.11.12.15.2h0c0,.07.09.09.13.14-.12,0-.19-.08-.29-.11s.12.14.17.22h0c0,.06,0,.06.12.1l0,0c.07,0,.29.17.32.22l0,0h-.06c.14.08.14.08.23.26s.44.48.65.69.26.29.39.43l-.11-.05Zm1,4.93s.1,0,.15.07a.47.47,0,0,0,.18.1s.07,0,.09-.06a.08.08,0,0,0,0-.08s0,0-.23-.21-.17-.15-.23-.14a.19.19,0,0,1-.16,0h0a3,3,0,0,1,0,.31.08.08,0,0,0,0,.07s.14.12.14.06S104,34.15,104,34.15Zm.37.28c-.06-.06-.15-.07-.22-.12l0,0h0c0,.07,0,.26-.3,0a.28.28,0,0,1-.12-.24l0-.25h0c-.11,0-.17.2-.12.25l0,0s.19.07.18.22,0,.13-.15.09-.27-.09-.15,0a.62.62,0,0,1,.14.23c0,.06,0,.06,0,.07s.21.06.38,0v.15c0,.15.11.3,0,.46s-.05.13,0,.2a.37.37,0,0,0,.54.12,1,1,0,0,0,.1-.18l0-.05h0a.21.21,0,0,1,.15-.07s.07,0,.07,0a1.54,1.54,0,0,0-.22-.44Zm-2.89-6.73h0a0,0,0,0,0,0,.05l.06,0,.09.07v0h0s0,0,0-.05h0l-.07,0Zm-.34-1.43s0,0,0,0l0,0Zm.08,0-.06,0,.12.06Zm4.91,10.22h0ZM67.7,56a.37.37,0,0,0-.11.16.15.15,0,0,0,.12.08.33.33,0,0,0,.14,0h0a.59.59,0,0,0-.16-.2ZM108.92,58c0,.3.24.51.29.79a2.88,2.88,0,0,1,0,1.48c1-.08,1-.08,1.27.33.21,0,.21,0,.34.32,0,0,.43.75.6.8.2-.2-.09-.52.17-.71.06,0,.06,0,.34.34.06-.16.06-.16.79-.23,0,0,.13,0,1.61,0,0-1.24-1.73-7.44-1.75-7.5h.64c-.52-.47-1-.9-1.75-1.54.06.25.14.58.19.83l0,.09h-1.46l.37,1.83v0l0,0c-.11.15-.37.15-.4.39l.25,1.28h-.06l-1.82,0c.1.25.33.42.41.67A2.06,2.06,0,0,1,108.92,58Zm1.08-2.7a.48.48,0,0,1,.12-.26c.08-.09.2-.13.28-.22L110,52.9v-.08h1.46l-.25-1.06-1.87,0h0c0,.21,0,.43,0,.64s-.31.29-.31.53a3.71,3.71,0,0,0,0,.47,2.63,2.63,0,0,1,0,.49,1.17,1.17,0,0,1-.14.34,2.47,2.47,0,0,0-.17.44c-.07.34,0,.69-.14,1,0,.11-.14.16-.16.27a1.3,1.3,0,0,0,0,.47h1.79ZM108.58,43.8c.19-.11.38.54.47.94,0,0,0,0,.23,0s.11,0,.2,0c-.14-.31-.14-.31-.13-.36s.1-.16,0-.24c-.23-.22-.23-.27-.22-.49v-.11h0a.73.73,0,0,1-.17-.18c-.19-.24-.27-.35-.13-.33h.08s0,0,0-.06,0-.09,0-.1-.17-.18-.08-.25a.25.25,0,0,0,0-.12h0a.89.89,0,0,0-.09-.18c-.1-.09-.13-.18-.08-.23a1.48,1.48,0,0,1,.05-.24h0l-.1,0,0-.06c-.14-.23-.21-.1-.21-.1s0,.08,0,.1-.1-.05-.15-.05-.07.07-.12.07a.2.2,0,0,1-.16-.12.19.19,0,0,1,0-.1h0s0,0-.08.11.14.25.2.37a.08.08,0,0,0,0,0,3.28,3.28,0,0,1,.32,1C108.4,43.67,108.4,43.67,108.58,43.8ZM108,38.18c.09.08.12.2.2.28s.34.22.49.36l0,0a14.24,14.24,0,0,1,.88,1.79l.16.14s0,0,.1,0,.3.32.55.19c0-.08,0-.15.53.21h0l.14,0,0-.07c-.4-.67-.1-.72,0-.7a1.09,1.09,0,0,1,.28.11l.3.17s0,0,.16-.39c0,0,0,0,0-.14-.22-.08-.22-.08-.31-.19l-.37-.47s0,0,0-.14a.33.33,0,0,0-.1-.12l-.67-.76a1,1,0,0,1-.14-.43.54.54,0,0,0-.11-.37,2.28,2.28,0,0,1-.25-.49h0c-.36-.22-.79-.24-1.14-.47l-1-.71h0l-.05,0c0,.07,0,.07.07.19s.26.4,0,.49c0,.1.2.26.06.29a.39.39,0,0,1-.49-.2h0s0,0-.08,0v0l.12.13c.06.05.52.49.18.49h-.06c-.13.15-.23-.18-.39-.14v0a.15.15,0,0,1,0,.06s0,0-.08,0a.14.14,0,0,0-.17.07s0,0,0,0c.22,0,.2.2.2.21s0,0,.08.05h0a5.14,5.14,0,0,1,.59.22Zm-.7-2.15c0-.06,0-.08,0-.11s-.16,0-.22-.08a.35.35,0,0,1-.12-.25.5.5,0,0,0-.41-.57s0,.1,0,.13h0a.38.38,0,0,1-.27-.28s0-.18-.4-.24l0-.08s0,0,0-.07h0l-.23-.24c-.07-.06-.17-.06-.24-.11s-.28-.24-.45-.44a.39.39,0,0,0-.15-.12l-.28-.16c-.14.1-.29-.15-.29-.17v0c-.09-.07-.11-.11-.11-.12s0-.12,0-.19c-.12-.32-.18-.33-.22-.33h-.26s0,.09-.1.09a.25.25,0,0,1-.16-.1c-.14-.18-.14-.19-.1-.34a.12.12,0,0,0,0-.13h0l0,0c-.06.06-.06.06-.26,0h0s0,0,.14.13h0l0,0c0,.08.13.1.14.19l0,0a6.08,6.08,0,0,0,.37.53l0,0,0,0s0,0,.23.34h0a.56.56,0,0,1,.45.44c0,.11,0,.11,0,.14h0s.08,0,.13,0a.07.07,0,0,1,0-.05h.09l.16-.06.05.07c.13.23.13.23.25.29s.35.37.37.42h0v0c.09.09.09.12.08.14s-.17,0-.19.1,0,0,0,0c.17.17.44.45.24.61l0,0s0,0,0,.06c.21-.12.33.11.5.14s0-.08.07-.09-.05-.14,0-.16a.27.27,0,0,1,.15.13s.18.41-.14.35h-.11a.16.16,0,0,1,0,.15c0,.09,0,.19,0,.28s0,0,.08-.07.07,0,.19,0l0,0,0,0c-.09-.25-.09-.25,0-.26h0c.07,0,.13.08.21.08l0,0,0,0h0s.06-.06.1-.07h0C107.24,36.16,107.29,36.09,107.33,36ZM78.87,30h0l-.27.16a.05.05,0,0,0,0,.05h.18l.15-.07.14-.06.16-.08,0,0h0A.91.91,0,0,1,79,30Zm.59-5.16a.94.94,0,0,0,.48,0h0a1.26,1.26,0,0,0-.5-.21c-.11,0-.16,0-.18,0S79.34,24.85,79.46,24.88Zm.06.29c.14,0,.15,0,.18,0s.11.19.07.24-.17.11-.2.22a4.32,4.32,0,0,0,.73.07,9.69,9.69,0,0,0,1.07,0c0-.07.09-.21.17,0a.18.18,0,0,1,0,.06l.52,0c.05,0,.05-.06.08-.09a.56.56,0,0,1,.16-.07s-.25-.22-1.21,0a1.53,1.53,0,0,1-.69-.06c-.1,0-.32-.19-.1-.21,0,0-.1-.05-.1-.06h-.15a7.36,7.36,0,0,1-.8-.12l-.15,0C79.13,25.19,79.36,25.2,79.52,25.17Zm0-.88h-.14l-.06,0,.12,0A.15.15,0,0,0,79.52,24.29Zm-.26,1.24v0s-.05,0-.14,0h-.06a1.86,1.86,0,0,0-.42.1C79,25.68,79.17,25.66,79.26,25.53Zm2.78.72c.09,0,.17,0,.27,0s.28,0,.43,0h0l-.09-.07a.54.54,0,0,0-.36-.08c-.13,0-.25-.06-.37-.05s0,0-.1.07c.16,0,.14.07.09.15ZM82.81,28h0l-.13,0-.07,0h.2ZM80.48,24.9h0l-.06,0,.11,0h0l.08,0h0Zm-.28-.49h0c.18,0,.2,0,.23.06l-.21.09c.06.18.54.12.72.09a8.13,8.13,0,0,0,1-.31h0a1.36,1.36,0,0,1,.34.27l0,0a1.45,1.45,0,0,1-.29,0l-.46,0-.12.05a.27.27,0,0,0,.13,0,.28.28,0,0,1,.2.21s-.15.12-.34-.07h0a1.18,1.18,0,0,0-.26,0c.06.07.07.07.09.11l0,0a6,6,0,0,0-.61.12s0,0,.18,0c.33,0,.64-.07,1-.05s.41.1.62.09l.47-.06v0c-.06-.07-.12-.13,0-.16l.49-.2a.55.55,0,0,0,.28-.05c.14-.07.2-.22.31-.3a1.14,1.14,0,0,1,.44-.11,5.42,5.42,0,0,0,1-.35l.69-.19c-.12-.05-.12-.05-.89-.06l-.56,0H83.7l-2.43.23c.19.23,1.26.19,1.64.1s.46-.11.49,0a1.62,1.62,0,0,1-.55.17l-.62,0c-.11,0-.23,0-.34,0s-.12.15-.22.15-.11-.09-.11-.13,0,0,0,0h0c-.29,0-.5-.26-.79-.24a4.73,4.73,0,0,0-.76.33C80,24.42,80,24.42,80.2,24.41ZM77.86,25.5l-.06.05c.1,0,.2,0,.3,0s.1,0,.33-.16.24-.14.26-.17h0a.08.08,0,0,0-.06,0l-.51,0a3,3,0,0,0-.68.24,1.14,1.14,0,0,0,.25,0h.15S78,25.42,77.86,25.5Zm-.3-.32s-.06,0-.09,0h-.06a.38.38,0,0,0-.16.09C77.36,25.26,77.56,25.25,77.56,25.18Zm-.61.33h-.07l-.07,0A.19.19,0,0,0,77,25.51Zm-.3-.87c.1,0,.21,0,.32,0h0l-.17,0h0l-.36,0Zm2,.14.07,0c.06,0,.13,0,.19,0s.05-.12.05-.14h0a3.67,3.67,0,0,0-.46-.14.66.66,0,0,0-.22,0,.33.33,0,0,0-.21.05c.12.06.25.09.37.15Zm-1.07.16a.15.15,0,0,0,0-.1h0a.3.3,0,0,0-.08.08.14.14,0,0,0,.09,0S77.55,25,77.55,24.94Zm-.71,1.39h0c-.08,0-.13-.11-.22-.12a.66.66,0,0,0-.22.08s0,.09,0,.09h0c.22,0,.24.08.25.12s0,.13.09.17h0l.57-.13a.84.84,0,0,0,.35-.23c-.08-.05-.18,0-.23-.13s.05-.08.11-.1c.24-.05.24-.06.32-.12h0a.24.24,0,0,0-.12,0h0c-.72,0-.72,0-.78.25a.29.29,0,0,1-.21.16Zm10.49,12h0a.2.2,0,0,0,.09-.06.25.25,0,0,0,0-.06h0a.62.62,0,0,1-.23.12h.06Zm-4.8-10.57h0l0,0h0l0,0,0,0S82.52,27.76,82.53,27.76ZM85,38.44a.12.12,0,0,0,0-.06h0l-.16.13c-.09.08-.12.2-.21.28a.83.83,0,0,0-.15.11c0,.05,0,.11,0,.16a.38.38,0,0,1,.13,0,1.22,1.22,0,0,0,.32,0l.21-.14,0,0c-.08,0-.17-.05-.23-.12s-.05-.06,0-.14S85,38.5,85,38.44Zm2.24-.12ZM86.56,72a1.44,1.44,0,0,1,.4.1c.07,0,.26.11.4-.44a8.75,8.75,0,0,1,.6-1.18l0,0L87.42,70a.38.38,0,0,1-.08-.13,1.12,1.12,0,0,0-.14-.24c-.12-.07-.26,0-.38-.11a1.17,1.17,0,0,0-.25-.14v0c0,.11,0,.12-.15.29a.66.66,0,0,0-.2.59c.06.39.08.4.11.43a.49.49,0,0,1,.1.68,2.9,2.9,0,0,0-.06.41c0,.14-.15.22-.22.33a.6.6,0,0,0,.18.12C86.41,72.17,86.44,72,86.56,72ZM82.11,27.47h0Zm.18.15H82.2l0,0h.07Zm3.6.94h0c.07,0,.07,0,.21-.09-.12-.15-.39,0-.46-.18h0c-.07,0-.22,0-.24-.13s-.3-.15-.5-.14h0s-.68-.24-.65-.4.12,0,.15-.06,0-.08,0-.11-.06,0-.07-.09,0,0,.07-.06a.68.68,0,0,1,.18,0h.07c0-.1-.67-.46-.83-.32s-.27.09-.36,0,0-.19.2-.15h0l.06-.05a.77.77,0,0,0-.22,0c-.23.16-.23.16-.49-.17a.13.13,0,0,1-.13-.08c0-.12-.4-.13-.4-.13a.43.43,0,0,0-.37.13c-.1.09-.18-.07-.28-.05s-.15.11-.23.14-.18-.06-.18-.06.11-.13.24-.25v-.07c-.07,0-.1-.06-.09-.15h-.11a.7.7,0,0,0-.39.07c-.49.12-.49.12-.57.23l.1.16c-.08,0-.17,0-.24.07v0h0c.19,0,.13.13.13.13-.12.2-.47-.07-.45-.25s.08-.08.1-.13a.21.21,0,0,1,0-.07,1.25,1.25,0,0,1,.52-.28h0a1.69,1.69,0,0,0-1.46.7s0,0,0,0h.18c.09,0,.34,0,.33.17-.18.14-.38,0-.57,0,.09.26.39,0,.56.16s.09.08.19.07l1.4,0a.7.7,0,0,0,.35,0s0,0,0,0c-.15-.06-.15-.06-.14-.12s0,0,.15-.06h0s.37.14.35.25h0c.1,0,.12,0,.18,0l.24.3a.13.13,0,0,0,.07.08c.15.1.35.1.48.24a2,2,0,0,1,.1.46,3.62,3.62,0,0,1-.51.27l-.24.12c.23.27.23.27.11.28H81.41s-.52.24-.38.35a.13.13,0,0,0,.08,0l.2,0c.14,0,.26-.11.4-.12s.15.08.23.06l.32-.07a.17.17,0,0,1,.17,0c.1.08.07.29.25.3s.32.16.24.24,0,0-.12,0a.09.09,0,0,1,0,.05,6.62,6.62,0,0,0,1.56.53C84.45,30.24,84,30,84,30s-.31-.24-.31-.33,0-.13.32.05h0c.21-.12.31.14.47.2s.12,0,.39,0c0-.08-.06-.16,0-.25a.19.19,0,0,1,.13,0h0a.59.59,0,0,0-.28-.52s-.77-.36-.58-.6c.09,0,.14.05.22.07h0c0-.07-.11-.11-.13-.19l0,0,.11,0h0c.11-.12.13-.14.53.25s.27.28.49.34a.24.24,0,0,0,0-.11c0-.21,0-.21.16-.19s.15-.09.24-.11v0c0-.06,0-.06,0-.1Zm-4.08-.37h0a1,1,0,0,0,.48-.07s0,0,0-.15,0,0,0-.06h0a.29.29,0,0,0-.16,0,.39.39,0,0,0-.3.11A.23.23,0,0,0,81.81,28.19ZM83.09,31s0,0,0,0h0l0,0Zm-2-1.23.06,0h0l-.06,0Zm-.34.07h-.09l.06.06h.12l-.07,0Zm2.53,8.65,0,0a.11.11,0,0,1,.07,0h0s0,0,0-.06Zm-7-13.57a1.24,1.24,0,0,0,.48-.1h-.09c-.54,0-.62.08-.64.1A1,1,0,0,0,76.22,24.87ZM52.38,32.31l-.1.06a.33.33,0,0,1-.12,0,.87.87,0,0,0-.31.12.81.81,0,0,0-.23.21s.41-.14.48-.18l.28-.13a3,3,0,0,0,.32-.1c.09-.05.13-.15.21-.21h0c-.2.12-.2.12-.24.13A.7.7,0,0,0,52.38,32.31Zm4.39,1.25a.24.24,0,0,0-.08.06l.08,0Zm-1.08,1.16.08-.08.12-.14s0,0,.36-.24h0l-.26,0h0a1.49,1.49,0,0,0-.7,1c.07-.06.06-.15.09-.22S55.43,34.87,55.69,34.72ZM53.15,32a.49.49,0,0,0,.24-.12h0l-.36.15ZM73.92,64.59c0-.1.07-.31.2-.35s.27-.11.4-.18c.33-.27.12-.34,0-.35h0c-.66.18-.9,1.22-1.8.91-.12.36-.25.73-.45.44,0-.07,0-.15,0-.23s-.47.25-.52.59c-.13.78-.13.78-.27.81h-.15a1.45,1.45,0,0,1-.55.62c0,.75,0,.75-.2.63,0,0-.06-.07-.08-.11a.68.68,0,0,1-.12.12c0,.15,0,.18-.19.29l-.14,0a.75.75,0,0,0-.06.13,3.86,3.86,0,0,1,.22,2.63c.33,1.07-.41,1.35-.85,1.52-.07.17.1.33,0,.51s0,0-.29,0c1.09.92,1.09.92,1.12,1h.1a2.12,2.12,0,0,0,.6-.06h0a1.09,1.09,0,0,1,.58.44l.23,0A9.84,9.84,0,0,1,73,75.43l.25.1c.07.13,0,.28,0,.41l.09,0h0a1.39,1.39,0,0,1,.38,0c.42-.29.42-.29.62-.11,1.34-.09.92.61.67,1l-.07.15.05,0c.12,0,.17-.07.31.14a11.81,11.81,0,0,0,.17-1.49,4.37,4.37,0,0,0,0-1.1v-.08c0-.08,0-.08-.17-.18s-.22-.16-.15-.78c0,0,.37-.43.62-.2a.28.28,0,0,0,0-.13c-.39-.07-.39-.07-.43-.15s-.12-.48.1-.59a.52.52,0,0,1,.21,0c.32,0,.63,0,.94,0s.3-.4.6-.32c-.14-.3-.23-.31-.28-.32s-.18-.11-.18-.12,0-.1.38-.47c-.07-.53-.3-1-.35-1.55,0-.15,0-.15.17-.31,0-.18.25-.41,0-.55-.29.1-.61-.07-.9.1,0,.07-.12.21-.35,0a2.83,2.83,0,0,1-.4-.67h0c-.09,0-.09,0-.34-.13-.79.32-1,.06-1.13-.24,0,0-.41-.15-.07-.73a.86.86,0,0,0-.13-.25c-.11-.16,0-.35-.14-.51s-.44.06-.42-.15C73,66.29,73.43,64.68,73.92,64.59Zm1-6.74s0-.09,0-.12a.49.49,0,0,1-.48,0c-.16-.08-.18-.08-.22-.08l-.21,0h0c.21.1.29.14.28.49.2.3.2.3.1.48s-.13.19-.46.13a3.19,3.19,0,0,0-.73-.16.24.24,0,0,0-.14.11.85.85,0,0,0,.28.15c.14,0,.23-.12.37-.11s.25.08.39.08h0c.56-.06.58-.07.66,0a.08.08,0,0,0,0,0c-.2-.21-.22-.24,0-.43-.1-.08-.08-.11.08-.27C74.89,58.08,74.89,58.08,75,57.85Zm-6.8,19.52s0,.08,0,.13v0a.19.19,0,0,1,.12-.07h.05c.08,0,.09.16.2.13s.15,0,.19,0,.07.07.09.17c.07.26.18.27.23.27.21-.35.12-.8.34-1.14a1.47,1.47,0,0,1,.84-.66,2.17,2.17,0,0,0,1.23-1.67,1.15,1.15,0,0,0-.63-.75c-.16.13-.16.13-.21.13l-.58-.09c-.14-.06-.09-.24-.2-.32a3.68,3.68,0,0,1-.44-.23l-.05-.06s0,0-.27-.22l0,0c-.21.27-.57.21-.82.39a2,2,0,0,1,0,.59c0,.16-.21.22-.31.33a.34.34,0,0,1-.26.53s0,0,0,0,.1.14.1.23,0,.15,0,.23l0,.07a.32.32,0,0,1-.1.44c.33.16.34.17.49.46a.17.17,0,0,0,0,0c.07-.27.12-.32.22-.34h0c.29.06.12.68-.19.91C68.49,77.35,68.27,77.36,68.15,77.37ZM75,59.23c.08,0,.16-.16.22-.27.19-.36.45-.24.5-.19h0a3.09,3.09,0,0,1,.67-.14.71.71,0,0,1,.51.18.69.69,0,0,0,.18-.19v0a.57.57,0,0,0-.17-.24s0,0-.15,0a.6.6,0,0,1-.33-.07c-.16-.11-.17-.34-.35-.44a1.49,1.49,0,0,0-.77-.2.68.68,0,0,0-.2,0h0a.56.56,0,0,1,0,.35c.12.1,0,.18-.07.29.1.13,0,.2-.14.32.15.15.17.18.1.31S74.93,59.22,75,59.23Zm3.09-.51h0A.41.41,0,0,0,78,59l.25,0h.49a1.2,1.2,0,0,0,.16-.16h0c-.07-.05-.2-.13-.77-.13ZM60.83,60.53c.29-.23.61,0,.9-.06v-.08s-.62-.79-.44-.84a.49.49,0,0,1,.17,0h.06c.07-.4.07-.4.09-.43A6.07,6.07,0,0,1,63.1,59c.43-.5.43-.5.71-.39.39-.25.18-.75.44-1.06l.65-.92,0-.06a.3.3,0,0,0-.09-.27l-.22.06-.23,0-.18,0h0a4.72,4.72,0,0,1-1.14.25h0a.62.62,0,0,0-.49.57,1.63,1.63,0,0,1-.83,1.22c0,.55-.6.42-.61.42a.18.18,0,0,1-.06-.14c-.27-.08-.46.19-.72.17s-1,.5-1.13,0c-.06-.07-.15-.11-.2-.19h0c-.43,0-.43,0-.55-.43,0,0-.75-1.53-.39-1.91-.24-.38-.21-.47.08-1.32A5.16,5.16,0,0,1,59.05,53c-.27-.25-.72-.14-.95-.47-.13-.17-.11-.27,0-.84A16.24,16.24,0,0,0,57.57,50H57.4c-.5,0-.75.89-1.27.52s-.44-.52-.37-.77a.85.85,0,0,0,.05-.26c.24.88.31.89.6.92.74-.61.74-.61,1-.58h.11c1.38.09,0,2.09,1,2.76l.09,0c.24,0,.24,0,.42.11l.1,0c.22-1.16.22-1.16,1.18-1.79L62.08,50c.47-.18,1,.07,1.45-.15h0c.23.12.3.41.54.51a1,1,0,0,1,.23-.13h0l.11,0c.27-.13.27-.13.37-.1,0-.16,0-.16.23-.25a.25.25,0,0,0-.14-.06c-.23,0-.23,0-.36,0a.32.32,0,0,1,.27-.39h0l.18.08.11,0s2.22-.62,2.66.38c.28,0,.41-.41.74-.29.08,0,.32.11.71.8a.73.73,0,0,1-.13.6c-.2.32-.2.32-.08,1h0a.47.47,0,0,1,.23,0c0,.42.29.77.29,1.2l.08.07c.75-.17.73-.62.57-3.57a1.49,1.49,0,0,1,.5-1.31c.45-.55,1.16-.74,1.64-1.25h0a5.47,5.47,0,0,1,1.84-1,.6.6,0,0,1,.08-.29l0-.16.15-.09.14.09a2.69,2.69,0,0,0,.27-.2l0-.05-.17,0s0-.12-.05-.17a3.15,3.15,0,0,0,.31-.41c-.17-.32-.14-.38.08-.8-.25-.2-.25-.2-.28-.37.55,0,.45-.83,1-.82-.05.38-.48.67-.27,1.11.29-.18.29-.18.37-.9l.15-.11a.58.58,0,0,0,.3.11,3.86,3.86,0,0,0,.56-.66l-.1-.13.09-.14a.67.67,0,0,1,.2,0,2.63,2.63,0,0,0,.39-.06l.09,0c-.15,0-.31,0-.37-.06v0c.46-.31,1-.3,1.52-.57h0l.1.13a.45.45,0,0,1,.28,0,3.79,3.79,0,0,1-.14-.48l.13-.13.06-.09a2.33,2.33,0,0,1,1.42-1.21h0l.1.13h0a1,1,0,0,0,.52-.16.78.78,0,0,0,.28-.16l-.15-.1,0-.16c-.15-.17-.16-.18,0-.58a2.47,2.47,0,0,0,.11-.38l-.11-.14-.31.09-.1-.14c-.49.38-.69,1-1.3,1.31h0l-.14,0c-.72.86-1.81.07-2.61.59a3.6,3.6,0,0,0-.59.44h-.35a2,2,0,0,0-.84.07c0,.19,0,.19-1.75.94-.55.27-.75.37-1,.05.24-.86,1.13-1.31,1.36-2.17l-.28-.23v-.18l-.16-.08s0-.13,0-.18h0l-.17,0c0-.31,0-.33-1.17-1a5.68,5.68,0,0,1-2.13-.18l-.15,0c-.17,0-.17,0-.5-.09a.67.67,0,0,1-.06-.15,1.59,1.59,0,0,0,.07-.2c-.2.17-.2.17-12.87.12a1.78,1.78,0,0,1-.69.47h0l-.32-.12c-.44.44-.74,1-1.17,1.43-3.23,3.29-3.23,3.29-3.88,4.42a2.36,2.36,0,0,0-.14.65,1.82,1.82,0,0,1-.26.63l.1.13c-.08.35-.48,1.59-.48,1.6a3.76,3.76,0,0,0,.7.44l0,.16a.59.59,0,0,1,.2.24v.09a1.36,1.36,0,0,1-.1.44l.09.09c.36,0,.71-.09,1.08-.1a.59.59,0,0,1,0,.23,4.93,4.93,0,0,0,2.85.79.91.91,0,0,1,1.28-.3c.08.29.14.54.2.75a6,6,0,0,0-.37-.63c-.56,0-.74,0-.83,0-.17.3-.17.3-.29.36h0c-.32,0-.67,0-.69,0h0a2.39,2.39,0,0,1-2.36-1l-1,.09s-.55,1.87-.32,2.11c.47.5.26,1.46-.46,1.38h0c.13.14.13.16.08.3s.2.05.24.31h.14l0,0L50,52l.06.05c0,.29.32.45.28.76s-.3.47-.3.77c0,0,0,0,0,.06.66,1,.66,1,.61,1.32.21,0,.53-.12.19-.79h0l-.06,0-.07,0h0c-.24-.22,0-1.67,0-1.68.06-.24.08-.3-.13-1-.05-.07-.05-.07,0-.94-.51-.37-.14-2.18.47-2.31.07,0,.12.12.2.17l.13-.05c.1,0,.16.05.14.19l.15.08c.12.27-.12.45-.15.68s-.08.44-.1.67a1.54,1.54,0,0,0,.2,1.11.55.55,0,0,1,.18,0c.1.2-.11.38,0,.57a.46.46,0,0,1,.16.07c0,.09,0,.09,0,.24.41.08.24.43.1.58s-.22.23,0,.34h0c.08,0,.08,0,.15.16.39.17.32.3.19.54a3.42,3.42,0,0,1,.5.91,1.58,1.58,0,0,0,.09.31c.22.35.06.78.22,1.14.12.11,0,.57-.2.68.12.12.12.12-.26.42a1.34,1.34,0,0,0,.4.86l.2.12c.37.24.56.69,1,.84.08-.05.08-.05.59.43a4.65,4.65,0,0,0,.74.44l.93.5c.44.07.71.58,1.22.48s.71-.67,1.27-.52l.08,0a3.55,3.55,0,0,1,1.22,1.22C60.63,61.3,60.49,60.79,60.83,60.53Zm-6.57-29,0,0h0Zm-7,2.42.08,0h0Zm23.18-7.16v0l.11,0a1.09,1.09,0,0,1,.39-.11c.24,0,.24,0,.26,0a2.75,2.75,0,0,0,.38-.2,4.42,4.42,0,0,1,.52-.14l.12-.06s.93-.22,1.19-.24l.13,0v0c-.08-.13-.08-.13-.47-.12h0c-.3,0-.3,0-.37-.06a.07.07,0,0,0-.07,0h0l-.77,0a.21.21,0,0,0-.1.11c0,.07,0,.07-.57.27l-.82.31C70.62,26.57,70.55,26.64,70.44,26.75Zm5-.08c.07-.07,0-.18.11-.25s0,0,0,0,.16-.18.23-.21l.34-.13,0,0h-.21a.51.51,0,0,0-.34.08l-.15.07c-.06,0-.11-.07-.17,0a1.38,1.38,0,0,0-.36.4.37.37,0,0,1-.32.13s-.12,0,0-.2l.06-.05a.28.28,0,0,0,0-.08c0-.08-.16-.09-.19-.08,0,.3-.38.11-.38.11s-.36,0-.4-.18a.08.08,0,0,0,0-.05,5.89,5.89,0,0,0-1,.18c-.22.05-.43.16-.65.22l-.24.08s0,0,.45,0a2,2,0,0,1,.33,0c.08,0,.05.1,0,.11l-.26,0a2.49,2.49,0,0,0-.7.13,3.42,3.42,0,0,0,.78,0c.45,0,.65.1.66.15s-.48.1-.66.09c0,0-1.23-.06-1.07.22.2.05.42-.07.62.06s-.14.15-.13.26h0l.21,0h.59c.3,0,.6-.12.9-.15s.3-.2.49-.2a.13.13,0,0,1,.1.08s0,.05.24.12c0,0,.73.13.87-.1-.13-.19.15-.2.19-.19.24.07.26.05.32,0-.54-.2-.54-.2-.53-.34S75.34,26.73,75.41,26.67Zm-1.64-1.42c.13,0,.26-.06.4-.07l.27,0h0a1.82,1.82,0,0,0,.72-.23l0,0h0l-.15,0a.45.45,0,0,1-.14,0h0a4.43,4.43,0,0,0-.51.06c-.36.07-.73.13-1.09.23A4.34,4.34,0,0,0,73.77,25.25Zm9.62,13.39h0s.09.07.11.07h.11l-.1,0-.1,0h0s-.05,0-.1-.08h0a.08.08,0,0,1,0,0ZM74,25.48a1.14,1.14,0,0,0,.65,0,1.28,1.28,0,0,1,.4,0c.14.05,0,.11,0,.11a4.77,4.77,0,0,1-.66.1c.07,0,.11,0,.39,0s.6-.15.91-.16l.63,0a1.42,1.42,0,0,0,.38-.16l0,0h-.39s0,0,.12-.24h-.08a2.25,2.25,0,0,0-.37.08c0,.07,0,.14,0,.21a.07.07,0,0,1-.06.06c-.11,0-.4.08-.53-.11a.18.18,0,0,0-.14-.1h0a.35.35,0,0,1-.19,0C75,25.19,75,25.19,74,25.48Zm1.73-.68.1,0h0l-.08,0h0S75.74,24.79,75.75,24.8Zm3.62,4.8.11,0a.27.27,0,0,1,.16,0c.09,0,.13.06.34-.06h0l0,0c-.07,0-.14,0-.2,0s-.08,0,0-.21c-.18-.21-.7-.17-.62-.55h0c-.07,0-.15,0-.23,0s-.12.08-.26.29a1,1,0,0,1-.2.18c-.07.05-.05.16-.11.22s0,0-.13,0a.63.63,0,0,0-.24.08c.32-.06.57-.11.41.12l0,.05h0s.09,0,.14,0,.14-.05.16-.08l.06-.07c.1,0,.23,0,.31-.1s.11-.13.15-.13A.22.22,0,0,1,79.37,29.6ZM47.82,33.68l-.13,0H47.6a.33.33,0,0,0-.1.06h.17l.19-.1h0Zm31.92-3.15a.27.27,0,0,0,.07-.08c.06-.06.14-.09.19-.14a.1.1,0,0,0,0,0h0c-.15,0-.15,0-.24.11s-.08.09,0,.15Zm4,8.2a.22.22,0,0,1,0,.13h.11a.28.28,0,0,1,0-.09.08.08,0,0,1,0,0h0A.45.45,0,0,1,83.73,38.73ZM53.32,31.64c.08-.1.09-.11.41-.24a8.72,8.72,0,0,1,2.42-.85c.08.32-.27.28-.28.27-.28-.09-1.24.47-1.25.47a.38.38,0,0,1-.11.14,6.88,6.88,0,0,1,1-.29h0A1.19,1.19,0,0,0,56,31c.49-.3.54-.3.87-.25,0,.11,0,.24.05.35s.09.07.25.06c.32,0,.63.16,1,.07v.08a1.29,1.29,0,0,1-.28.17s0,0,0,.44l.06.05c0,.09,0,.09-.8,1a11.78,11.78,0,0,1,1.18-.88l.06,0c-.16.21-.42.31-.61.49s-.5.26-.6.55c0,0,0,0-.29.6a2.56,2.56,0,0,0,.35-.22l.06.07c.17-.1.17-.1.26-.08a1.09,1.09,0,0,1,0,.17,1.49,1.49,0,0,0,1-.88.82.82,0,0,0,.14.26c-.37.58-1.15.63-1.53,1.19h-.14c-.19.06-.25.08-.34.34.3-.07.54-.27.83-.36-.05.1-.05.1-.92.7v0a1,1,0,0,0,.06.16,4.4,4.4,0,0,0-.52.66.67.67,0,0,0,.15.06l.06.16c-.15.29-.34.31-.55.08L55.55,36l-.16,0c-.1.18-.1.18,0,1.1.07.14.07.14.77-.05l.06-.15h.07C68.8,37,68.8,37,69.21,36.82l.1.15-.06.15.1.14.15.06.12,0,.17,0h0a3.35,3.35,0,0,0,1.52.35h0a1.37,1.37,0,0,1,1.85.84l.15.07c0,.16.17.27.22.42l0,.06a2.61,2.61,0,0,1,.3.27c-.09.78-.09.78-1.31,2.13l.12.14a1.3,1.3,0,0,0,.63-.24c.91-.3,1.67-1,2.71-1h.21a3.88,3.88,0,0,1,.59-.43c.49-.31.49-.31,2.42-.42.94-.06,1-1.16,1.69-1.48H81l.1.15c.32-.12.66-.1.39.66,0,.16,0,.16.07.62h.17c.48,0,.82-.39,1.28-.46l0,.17-.12.11c.38,0,.38,0,.53.08a.82.82,0,0,1-.47.2l-.13,0c-.7.29-1,.43-.89.86.48,0,.57-.69,1.09-.55a6.34,6.34,0,0,0,1.4-.45,1.71,1.71,0,0,1-.27-.2.9.9,0,0,1-.21.08c-1.15-.46-1.15-.46-1.11-.86l-.16,0c0-.17.2-.27.29-.4h0l-.11,0-.15.06a.52.52,0,0,1-.12-.18.56.56,0,0,1-.28-.16l.15-.09h.07l.12,0h0c.28.11.47-.12.71-.18v0c-.24-.6-1.84,0-2.63.63a4.7,4.7,0,0,1-.62.44.91.91,0,0,1-.33,0,5.33,5.33,0,0,1,5-2l.17,0,.11,0h.14c.29,0,.29,0,.63-.26a1.47,1.47,0,0,1,.91-.43h.12a1.42,1.42,0,0,0,.59-.37c-.15-.35-.12-.39,0-.47s.06,0,.07-.08a1.27,1.27,0,0,0-.29-.18.81.81,0,0,1-.33.11l-.07-.15.12-.12-.06-.1a1.7,1.7,0,0,0-.75.29c-.3.2-.3.2-.48.2,0-.67.82-.48,1.22-.73a5.3,5.3,0,0,0-1.12-.28.63.63,0,0,1,0-.24c-.48-.49-.48-.49-.44-.66l.14-.08a10.11,10.11,0,0,0-.71-1.34l0-.16-.13,0a.58.58,0,0,1-.24.2,1.24,1.24,0,0,1-1,.73.72.72,0,0,0-.57-.3c-.14-.33.06-.66,0-1a1.12,1.12,0,0,1-.48-.16,1,1,0,0,0,0-.18h0c-.15-.09-.27-.22-.41-.31-.52.12-1.28-.48-1.58.21h0l.08.15c-.25.28-.25.28-.28.55s0,.27-.66.66c0,.1,0,.1.24.3.32.81-.24,1.4-1.67,1.77L78,34a2.54,2.54,0,0,1-.46,1.51l0,.07a.72.72,0,0,1-.2.29l-.09-.14c-.39.2-.42.22-.65,0,0-.21-.23-.32-.24-.53-.06-.61-.06-.61.25-.89,0-.23,0-.23.22-.5-.3-.33-.75,0-1.07-.24-.15-.17-.15-.17-.62-.28C75,33,75,33,74.46,32.74l-.15-.07h0l-.7.1c0-.05,0-.11,0-.16s.1-.11.27-.61c0-.08,0-.08,0-.08h0a1.09,1.09,0,0,1-.35-.07l-.07-.16a7.75,7.75,0,0,1,1.23-1.07c.46-.21.79-.68,1.35-.68.32,0,.32,0,.45-.14l-.14-.09.1-.13c.32.08.4,0,.59-.16l.08,0h0l.15.05.12,0a6,6,0,0,0,.83-.41H78c-.24,0-.4-.25-.65-.23h-.17a1,1,0,0,0,0-.17l1.3.18.3-.16-.11-.13c.19-.09.19-.09.52-.08l0,.11.15,0h0l.11,0-.12-.12c0-.05,0-.11,0-.16l.07,0h0a.61.61,0,0,1,.25.23,2.15,2.15,0,0,0,.79-.28,1.28,1.28,0,0,1-.06-.33l-.08-.14.17,0,.07,0,.17,0s0,0,0,0a1.09,1.09,0,0,1-.05-.17c-.53-.22-.62-.18-.8-.09,0,.05,0,.11,0,.16l-.1.13h-.09c-.36.17-.64.46-1,.61a.5.5,0,0,0-.08-.12c-.08-.14-.18-.31.22-.48,0,0,0-.11-.06-.15a2.62,2.62,0,0,0-.6.31l-.1-.13a.41.41,0,0,1,0-.09.53.53,0,0,1,.08-.24h-.19L78,27.29a1.22,1.22,0,0,1,.29-.17.58.58,0,0,1,0-.32.7.7,0,0,1-.09-.32c.33-.13.33-.13.44-.25s.23,0,1-.27c-.26,0-.52-.06-.79-.07-.63.09-.88.73-1.4,1a1.1,1.1,0,0,1-.23.25c.1.14.27.18.39.29-.25.46-.83.47-1.13.86a.49.49,0,0,1-.27-.15l.11-.14a1,1,0,0,0,0-.17,1.75,1.75,0,0,1,.47-.2l0-.17-.12-.13c-.23,0-.41.19-.63.23l.14.08a1,1,0,0,1,0,.17.67.67,0,0,1-.24,0,2.62,2.62,0,0,1-2,0c0-.05,0-.12,0-.16a1,1,0,0,0-.56,0h-.09l-.16.06c0,.18,0,.28-.47.41h0c-.11-.05-.16-.18-.29-.18a4,4,0,0,1-1.48,0c0-.05,0-.12,0-.16l.14-.06.36-.06-.1-.14a2.59,2.59,0,0,0-.47,0h0c-1-.3-1-.3-1.57-.15l0-.17c-.17,0-.33.1-.51.13a1,1,0,0,0-.05-.16l.12-.13a2.68,2.68,0,0,0-.69.17h-.17l.07-.15c-2.84.33-2.84.33-2.92.17h-.2A71.67,71.67,0,0,0,58.12,31h0c.17,0,.34-.05.5,0a2.17,2.17,0,0,0-.35.56c.36,0,.66-.23,1-.28,0,.05,0,.12,0,.17a9.57,9.57,0,0,0-.86,1.25,3.1,3.1,0,0,1,.73-1.26l0,0c-.43.05-.79.31-1.2.39v-.1c.17-.14.2-.37.31-.54a2.1,2.1,0,0,1-.43,0,63.31,63.31,0,0,1,6.25-3.58l.49-.25h0c-.08-.16-.08-.17-.35-.14A4.87,4.87,0,0,1,62.66,27a.78.78,0,0,0,.05-.14l-.12,0h-.18a.51.51,0,0,1-.07-.15l0,0c-.7.14-1.41.21-2.1.37-.51.14-1,.37-1.52.47h-.35a3.47,3.47,0,0,0-.41.16c0,.21-.11.28-.29.38s0,0,0,0h.25l0,.07a.75.75,0,0,1-.26.14l0,0a.41.41,0,0,1,.25,0c0,.22-.35.22-.41.2l-.17.1h-.06c-.06,0-.06,0-.27,0h0a.73.73,0,0,0-.26,0l-.06-.07c.08-.07.19-.09.27-.16l-.46.1a.43.43,0,0,1-.23.11.1.1,0,0,0-.05,0l-.42.11h0a1,1,0,0,1-.28.08h0l.08,0,0,.08a3.27,3.27,0,0,1-.5.24c.47.19.89-.1,1.33-.14,0,.09-.07.18-.38.27h0c-.07,0-.07,0-.07,0a1.7,1.7,0,0,1-.88.41c-.28-.11-.46.16-.71.17,0,0,0-.05,0-.08v0a3.74,3.74,0,0,0-.63.25c-.17.1-.87.38-.88.38h-.07a1.1,1.1,0,0,0-.33.23c-.15.27-.46.34-.66.56h.16l.46-.17c0,.05,0,.05-1,.73l.45-.14a.24.24,0,0,0,0,.09.37.37,0,0,1,.15,0v0l-.12.13a2.21,2.21,0,0,0,.34-.18.25.25,0,0,0,0,.09l-.07.06a1.48,1.48,0,0,0,.35-.1l0,.08-2.11,1a14.83,14.83,0,0,0-2.23.82h0c.41-.08.78-.29,1.18-.39,1.37-.4,2.65-1.05,4-1.48C53.33,31.7,53.33,31.66,53.32,31.64ZM68.56,55.58a2.79,2.79,0,0,0,.74.17h.06c.22.07.39.21.59.29s.44-.1.62.08,0,.6.3.67c.16,0,.33,0,.49.05a.27.27,0,0,1,.16.13c0,.08,0,.08-.42.54h0c.35,0,.69-.15,1-.16.17,0,.31.14.48.13s.38-.15.58-.17h0c-.19-.1-.32-.32-.57-.32h-.06c-.36,0-.27-.16-.18-.32-.5-.12-.5-.12-1.61-.85-.23-.14-.26-.14-.38-.13s-.25,0-.39-.15-.39-.49-1.71-.46c-.52.1-1.31.26-1.46.58a1.24,1.24,0,0,0-.1.24l.69-.33.14-.1c.18-.16.22-.19.29-.21s.93-.07.79.22A.32.32,0,0,1,68.56,55.58Z" transform="translate(-4.91 -6.08)"/><text class="cls-9" transform="translate(143.06 93.41)">Ea<tspan class="cls-10" x="20.57" y="0">r</tspan><tspan x="26.87" y="0">th </tspan><tspan class="cls-10" x="47.81" y="0">S</tspan><tspan class="cls-11" x="57.83" y="0">ystem Model</tspan><tspan class="cls-10" x="8.85" y="21.6">E</tspan><tspan x="19.45" y="21.6">valu</tspan><tspan class="cls-12" x="53.43" y="21.6">a</tspan><tspan x="63.01" y="21.6">tion </tspan><tspan class="cls-13" x="99.55" y="21.6">P</tspan><tspan class="cls-14" x="109.43" y="21.6">r</tspan><tspan class="cls-15" x="115.62" y="21.6">oject</tspan></text></svg>